<?xml version="1.0" encoding="utf-8"?>
<!-- Generator: Adobe Illustrator 16.0.3, SVG Export Plug-In . SVG Version: 6.00 Build 0)  -->
<!DOCTYPE svg PUBLIC "-//W3C//DTD SVG 1.1//EN" "http://www.w3.org/Graphics/SVG/1.1/DTD/svg11.dtd">
<svg version="1.1" id="Capa_1" xmlns="http://www.w3.org/2000/svg" xmlns:xlink="http://www.w3.org/1999/xlink" x="0px" y="0px"
	 width="750px" height="500px" viewBox="0 0 750 500" enable-background="new 0 0 750 500" xml:space="preserve">
<g id="BACKGROUND">
</g>
<g id="OBJECTS">
	<g>
		<path fill="#7CA5A3" d="M1010.728,425.251c-10.955-39.313-20.367-79.465-31.915-118.503
			c-22.502-76.073-65.914-202.391-130.951-201.842c-69.334,0.583-95.232,87.171-155.002,133.026
			c-46.938,36.011-101.631-25.263-144.311-41.191c-49.937-18.637-85.239,5.809-128.502,58.372
			C382.316,300.955,339.21,460.793,305.5,526.97l471.453,22.53l40.963-124.25L1010.728,425.251L1010.728,425.251z"/>
	</g>
	<path fill="#688785" d="M-233.734,426.497c-8.532-67.302,25.806-152.182,72.628-165.167c20.13-5.582,41.642-1.958,60.746-12.333
		c34.531-18.753,54.151-79.229,91.114-83.871c28.009-3.519,51.395,27.325,70.385,55.906c18.989,28.579,41.978,59.737,70.041,57.111
		c18.243-1.709,34.557-17.922,52.816-19.305c44.483-3.368,69.768,77.017,113.396,89.438c24.48,6.971,49.415-9.184,74.395-7.912
		c29.397,1.494,54.972,26.461,79.63,48.548C476.08,411,731.936,508.907,764.357,511.48l-837.479,22.364l14.298-107.348H-233.734
		L-233.734,426.497z"/>
</g>
</svg>
