<?xml version="1.0" encoding="utf-8"?>
<!-- Generator: Adobe Illustrator 16.0.3, SVG Export Plug-In . SVG Version: 6.00 Build 0)  -->
<!DOCTYPE svg PUBLIC "-//W3C//DTD SVG 1.1//EN" "http://www.w3.org/Graphics/SVG/1.1/DTD/svg11.dtd">
<svg version="1.1" xmlns="http://www.w3.org/2000/svg" xmlns:xlink="http://www.w3.org/1999/xlink" x="0px" y="0px" width="750px"
	 height="500px" viewBox="0 0 750 500" enable-background="new 0 0 750 500" xml:space="preserve">
<g id="BACKGROUND">
</g>
<g id="OBJECTS">
	<g>
		<path fill="#7CA5A3" d="M997.349,421.01c-12.57-35.157-23.368-71.064-36.617-105.976
			c-25.821-68.031-75.63-180.995-150.252-180.504c-79.551,0.522-109.265,77.956-177.846,118.963
			c-53.854,32.204-116.607-22.592-165.577-36.837c-57.296-16.667-97.8,5.195-147.438,52.202
			c-43.292,40.996-71.287,92.97-109.966,152.151H997.349z"/>
	</g>
	<path fill="#688785" d="M-221.14,422.124c-8.353-60.187,25.269-136.094,71.112-147.706c19.71-4.992,40.773-1.751,59.479-11.029
		c33.81-16.771,53.02-70.854,89.212-75.005c27.425-3.147,50.322,24.436,68.916,49.996c18.593,25.557,41.102,53.422,68.579,51.074
		c17.863-1.528,33.836-16.027,51.714-17.264c43.554-3.012,68.311,68.874,111.028,79.984c23.97,6.233,48.384-8.213,72.843-7.076
		c28.784,1.336,53.823,23.664,77.968,43.415c24.149,19.753,48.664,31.309,80.41,33.611H-221.14z"/>
</g>
</svg>
