<?xml version="1.0" encoding="utf-8"?>
<!-- Generator: Adobe Illustrator 16.0.3, SVG Export Plug-In . SVG Version: 6.00 Build 0)  -->
<!DOCTYPE svg PUBLIC "-//W3C//DTD SVG 1.1//EN" "http://www.w3.org/Graphics/SVG/1.1/DTD/svg11.dtd">
<svg version="1.1" id="Capa_1" xmlns="http://www.w3.org/2000/svg" xmlns:xlink="http://www.w3.org/1999/xlink" x="0px" y="0px"
	 width="750px" height="500px" viewBox="0 0 750 500" enable-background="new 0 0 750 500" xml:space="preserve">
<g id="BACKGROUND">
</g>
<g id="OBJECTS">
	<path fill="#E8E0CD" d="M249.372,225.854c5.568-9.297-12.206-3.956-16.933-8.963c-4.726-5.008-8.786-11.508-14.631-14.038
		c-7.837-3.391-16.541,1.354-24.696-0.511c-17.61-4.027-24.579-35.63-42.239-39.288c-14.183-2.938-26.418,14.043-40.757,15.324
		c-15.032,1.343-28.424-20.792-42.154-26.865c-18.308-8.098-32.365-1.106-44.754,8.523C7.896,171.936-3.577,197.115-9.545,225.854
		H249.372z"/>
	<path fill="#E8E0CD" d="M508.629,204.272c5.24-0.082,12.205-3.956,16.932-8.964c4.727-5.007,8.785-11.507,14.631-14.036
		c7.836-3.391,16.541,1.353,24.695-0.512c17.609-4.027,24.578-35.629,42.238-39.289c14.184-2.938,26.418,14.043,40.758,15.325
		c15.031,1.343,28.422-20.792,42.154-26.864c18.309-8.098,32.365-1.105,44.756,8.523c15.311,11.899,26.785,37.078,32.752,65.817
		L508.629,204.272L508.629,204.272z"/>
	<path fill="#E8E0CD" d="M218.527,146.688c-0.669-4.034,0.81-8.968,3.559-11.212s6.592-2.126,9.251,0.282
		c-1.331-13.633,4.968-27.909,14.873-33.709c9.906-5.801,22.653-2.676,30.101,7.374c3.409,4.602,6.676,11.012,11.672,10.725
		c3.394-0.195,6.181-3.633,9.539-4.284c4.537-0.879,8.607,3.443,11.625,7.794c3.016,4.35,6.087,9.352,10.572,10.584
		c6.019,1.653,11.689-4.177,17.806-5.101c13.29-2.009,23.401,18.854,36.747,17.547H218.527z"/>
</g>
</svg>
