<?xml version="1.0" encoding="utf-8"?>
<!-- Generator: Adobe Illustrator 16.0.3, SVG Export Plug-In . SVG Version: 6.00 Build 0)  -->
<!DOCTYPE svg PUBLIC "-//W3C//DTD SVG 1.1//EN" "http://www.w3.org/Graphics/SVG/1.1/DTD/svg11.dtd">
<svg version="1.1" xmlns="http://www.w3.org/2000/svg" xmlns:xlink="http://www.w3.org/1999/xlink" x="0px" y="0px" width="750px"
	 height="500px" viewBox="0 0 750 500" enable-background="new 0 0 750 500" xml:space="preserve">
<g id="BACKGROUND">
</g>
<g id="OBJECTS">
	<path fill="#E8E0CD" d="M330.043,208.234c8.624-14.4-18.904-6.126-26.225-13.882c-7.32-7.756-13.608-17.823-22.66-21.741
		c-12.138-5.251-25.619,2.096-38.249-0.792c-27.274-6.237-38.067-55.183-65.42-60.849c-21.966-4.55-40.917,21.75-63.124,23.734
		c-23.282,2.08-44.022-32.203-65.288-41.608C20.721,80.554-1.05,91.383-20.239,106.297c-23.714,18.43-41.485,57.426-50.727,101.937
		H330.043z"/>
	<path fill="#E8E0CD" d="M403.233,174.809c8.117-0.126,18.903-6.126,26.224-13.883c7.32-7.756,13.608-17.823,22.661-21.74
		c12.137-5.252,25.619,2.095,38.248-0.792c27.273-6.237,38.067-55.183,65.42-60.85c21.967-4.55,40.916,21.75,63.124,23.735
		c23.281,2.079,44.021-32.203,65.288-41.608c28.356-12.542,50.128-1.712,69.317,13.201c23.713,18.43,41.485,57.426,50.727,101.938
		H403.233z"/>
	<path fill="#E8E0CD" d="M178.023,79.2c-0.858-5.177,1.039-11.51,4.567-14.39s8.46-2.729,11.873,0.362
		c-1.708-17.496,6.376-35.818,19.088-43.261c12.712-7.444,29.072-3.435,38.63,9.464c4.375,5.906,8.568,14.133,14.98,13.763
		c4.356-0.251,7.932-4.662,12.242-5.498c5.823-1.128,11.047,4.419,14.919,10.003c3.871,5.583,7.811,12.002,13.567,13.584
		c7.725,2.121,15.001-5.361,22.852-6.547c17.056-2.578,30.032,24.197,47.16,22.52H178.023z"/>
</g>
</svg>
