<?xml version="1.0" encoding="utf-8"?>
<!-- Generator: Adobe Illustrator 16.0.3, SVG Export Plug-In . SVG Version: 6.00 Build 0)  -->
<!DOCTYPE svg PUBLIC "-//W3C//DTD SVG 1.1//EN" "http://www.w3.org/Graphics/SVG/1.1/DTD/svg11.dtd">
<svg version="1.1" id="Capa_1" xmlns="http://www.w3.org/2000/svg" xmlns:xlink="http://www.w3.org/1999/xlink" x="0px" y="0px"
	 width="750px" height="500px" viewBox="0 0 750 500" enable-background="new 0 0 750 500" xml:space="preserve">
<g id="BACKGROUND">
</g>
<g id="OBJECTS">
	<rect x="-85.353" y="227.5" fill="#71C0C4" width="929.179" height="328.125"/>
	<g>
		<g>
			<path fill="#67B3BE" d="M579.59,233.917c-8.491,3.915-16.628,8.451-27.027,10.307c-18.374,3.277-38.587-2.681-57.287-0.081
				c-18.991,2.641-32.512,13.569-51.882,15.042c-13.049,0.992-25.952-2.588-39.109-2.403c-13.43,0.184-23.337,4.916-32.613,10.15
				c-11.996,6.772-29.038,16.215-47.408,12.693c-18.043-3.461-34.024-11.479-43.574-20.817c-9.555-9.345-13.265-20.59-10.579-31.307
				h329.952C592.63,228.501,585.665,231.118,579.59,233.917z"/>
		</g>
	</g>
	<path fill="#5AACB9" d="M175.575,227.5c-2.775,10.236,8.393,23.144,23.622,25.121c6.547,0.848,13.543,0.299,19.758,1.873
		c11.231,2.853,17.612,12.051,29.634,12.756c9.111,0.536,16.717-4.154,22.893-8.502s13.653-9.086,22.78-8.684
		c5.934,0.259,11.239,2.724,17.179,2.935c14.468,0.512,22.691-11.714,36.881-13.602c7.961-1.061,16.072,1.394,24.197,1.202
		c9.562-0.227,17.879-4.026,25.9-7.384c8.022-3.358,16.164-5.324,26.711-5.716L175.575,227.5L175.575,227.5z"/>
</g>
<polygon fill="#144F4F" points="-6.496,499.521 -31.181,348.195 801.205,330.628 804.389,514.456 525.135,555.844 "/>
</svg>
