<?xml version="1.0" encoding="utf-8"?>
<!-- Generator: Adobe Illustrator 16.0.3, SVG Export Plug-In . SVG Version: 6.00 Build 0)  -->
<!DOCTYPE svg PUBLIC "-//W3C//DTD SVG 1.1//EN" "http://www.w3.org/Graphics/SVG/1.1/DTD/svg11.dtd">
<svg version="1.1" xmlns="http://www.w3.org/2000/svg" xmlns:xlink="http://www.w3.org/1999/xlink" x="0px" y="0px" width="750px"
	 height="500px" viewBox="0 0 750 500" enable-background="new 0 0 750 500" xml:space="preserve">
<g id="BACKGROUND">
</g>
<g id="OBJECTS">
	<rect x="-85.353" y="200.756" fill="#71C0C4" width="929.179" height="299.244"/>
	<g>
		<g>
			<path fill="#67B3BE" d="M875.899,209.153c-19.143,5.122-37.484,11.061-60.93,13.487c-41.42,4.289-86.988-3.508-129.143-0.105
				c-42.813,3.455-73.293,17.758-116.961,19.684c-29.416,1.298-58.504-3.385-88.167-3.146c-30.276,0.244-52.61,6.434-73.521,13.286
				c-27.043,8.862-65.461,21.219-106.874,16.609c-40.675-4.528-76.704-15.019-98.229-27.242
				c-21.541-12.231-29.905-26.946-23.85-40.971h743.825C905.294,202.065,889.595,205.489,875.899,209.153z"/>
		</g>
	</g>
	<path fill="#5AACB9" d="M-34.892,200.756c-6.255,13.395,18.922,30.288,53.252,32.873c14.76,1.11,30.533,0.39,44.541,2.454
		c25.319,3.732,39.704,15.769,66.807,16.692c20.538,0.701,37.684-5.438,51.607-11.126s30.779-11.89,51.355-11.366
		c13.377,0.34,25.338,3.565,38.726,3.842c32.616,0.67,51.155-15.329,83.144-17.801c17.95-1.388,36.232,1.827,54.549,1.574
		c21.555-0.297,40.305-5.267,58.389-9.662s36.439-6.968,60.215-7.48H-34.892z"/>
</g>
</svg>
