<?xml version="1.0" encoding="utf-8"?>
<!-- Generator: Adobe Illustrator 16.0.3, SVG Export Plug-In . SVG Version: 6.00 Build 0)  -->
<!DOCTYPE svg PUBLIC "-//W3C//DTD SVG 1.1//EN" "http://www.w3.org/Graphics/SVG/1.1/DTD/svg11.dtd">
<svg version="1.1" xmlns="http://www.w3.org/2000/svg" xmlns:xlink="http://www.w3.org/1999/xlink" x="0px" y="0px" width="750px"
	 height="500px" viewBox="0 0 750 500" enable-background="new 0 0 750 500" xml:space="preserve">
<g id="BACKGROUND">
</g>
<g id="OBJECTS">
	<g>
		<g>
			<polygon fill="#5F8481" points="738.357,277.323 723.409,173.167 708.462,277.323 722.09,271.965 722.09,332.376 
				724.729,332.376 724.729,271.965 			"/>
			<polygon fill="#5F8481" points="702.176,216.062 687.229,293.425 700.855,288.066 700.855,321.684 703.496,321.684 
				703.496,288.066 717.124,293.425 			"/>
			<polygon fill="#5F8481" points="675.97,274.459 668.143,314.964 675.278,312.159 675.278,329.761 676.66,329.761 676.66,312.159 
				683.796,314.964 			"/>
			<polygon fill="#5F8481" points="469.018,372.152 461.488,413.817 465.002,412.435 461.488,431.879 468.353,429.181 
				468.353,446.111 469.682,446.111 469.682,429.181 476.546,431.879 473.032,412.435 476.546,413.817 			"/>
			<polygon fill="#5F8481" points="480.107,347.367 469.018,408.741 474.192,406.706 469.018,435.348 479.128,431.373 
				479.128,456.313 481.087,456.313 481.087,431.373 491.197,435.348 486.021,406.706 491.197,408.741 			"/>
			<polygon fill="#5F8481" points="448.47,350.492 440.785,393.02 444.371,391.609 440.785,411.456 447.791,408.701 
				447.791,425.983 449.148,425.983 449.148,408.701 456.154,411.456 452.567,391.609 456.154,393.02 			"/>
		</g>
		<g>
			<path fill="#5F8481" d="M916.053,461c-6.457-48.252-15.707-96.383-36.054-136.793c-42.584-84.571-143.643-104.775-199.159-31.054
				c-16.193,21.504-29.229,50.717-51.238,58.695c-16.789,6.088-35.263-1.996-51.781,5.301c-17.1,7.556-28.192,29.735-43.981,41.328
				c-17.305,12.704-38.28,11.43-57.887,8.451c-19.607-2.978-39.861-7.25-58.748,0.408c-17.878,7.252-34.022,29.175-33.173,53.663
				H916.053z"/>
		</g>
	</g>
</g>
</svg>
