<?xml version="1.0" encoding="utf-8"?>
<!-- Generator: Adobe Illustrator 16.0.3, SVG Export Plug-In . SVG Version: 6.00 Build 0)  -->
<!DOCTYPE svg PUBLIC "-//W3C//DTD SVG 1.1//EN" "http://www.w3.org/Graphics/SVG/1.1/DTD/svg11.dtd">
<svg version="1.1" id="Capa_1" xmlns="http://www.w3.org/2000/svg" xmlns:xlink="http://www.w3.org/1999/xlink" x="0px" y="0px"
	 width="750px" height="500px" viewBox="0 0 750 500" enable-background="new 0 0 750 500" xml:space="preserve">
<g id="BACKGROUND">
</g>
<g id="OBJECTS">
	<g>
		<g>
			<polygon fill="#5F8481" points="738.357,241.366 723.409,137.21 708.463,241.366 722.091,236.008 722.091,296.419 
				724.729,296.419 724.729,236.008 			"/>
			<polygon fill="#5F8481" points="702.177,180.105 687.229,257.468 700.855,252.109 700.855,285.727 703.496,285.727 
				703.496,252.109 717.125,257.468 			"/>
			<polygon fill="#5F8481" points="675.97,238.502 668.143,279.007 675.278,276.202 675.278,293.804 676.66,293.804 676.66,276.202 
				683.797,279.007 			"/>
			<polygon fill="#5F8481" points="469.018,336.195 461.488,377.859 465.003,376.479 461.488,395.922 468.353,393.224 
				468.353,410.154 469.682,410.154 469.682,393.224 476.547,395.922 473.032,376.479 476.547,377.859 			"/>
			<polygon fill="#5F8481" points="480.107,311.41 469.018,372.784 474.192,370.749 469.018,399.391 479.129,395.416 
				479.129,420.355 481.088,420.355 481.088,395.416 491.197,399.391 486.021,370.749 491.197,372.784 			"/>
			<polygon fill="#5F8481" points="448.47,314.535 440.785,357.063 444.371,355.652 440.785,375.499 447.791,372.744 
				447.791,390.026 449.148,390.026 449.148,372.744 456.154,375.499 452.567,355.652 456.154,357.063 			"/>
		</g>
		<g>
			<path fill="#5F8481" d="M916.053,425.043c-6.457-48.252-15.707-96.383-36.055-136.793
				c-42.584-84.571-143.643-104.775-199.158-31.055c-16.193,21.505-29.229,50.718-51.238,58.695
				c-16.789,6.088-35.263-1.996-51.781,5.301c-17.1,7.557-28.191,29.735-43.98,41.328c-17.306,12.705-38.28,11.431-57.888,8.451
				c-19.606-2.978-39.86-7.25-58.748,0.408c-17.878,7.252-34.021,29.175-33.173,53.663L375,527.543h414.5l-15-102.501
				L916.053,425.043L916.053,425.043z"/>
		</g>
	</g>
</g>
</svg>
