<?xml version="1.0" encoding="utf-8"?>
<!-- Generator: Adobe Illustrator 16.0.3, SVG Export Plug-In . SVG Version: 6.00 Build 0)  -->
<!DOCTYPE svg PUBLIC "-//W3C//DTD SVG 1.1//EN" "http://www.w3.org/Graphics/SVG/1.1/DTD/svg11.dtd">
<svg version="1.1" id="Capa_1" xmlns="http://www.w3.org/2000/svg" xmlns:xlink="http://www.w3.org/1999/xlink" x="0px" y="0px"
	 width="750px" height="500px" viewBox="0 0 750 500" enable-background="new 0 0 750 500" xml:space="preserve">
<g id="BACKGROUND">
</g>
<g id="OBJECTS">
	<g>
		<g>
			<g>
				<path fill="#144F4F" d="M784,391c-18.116-14.22,0.754-62.675-19.5-73.283c-6.101-3.195-17.5,45.663-92.128,29.148
					c-51.008-15.492-107.125,12.673-159.035,0.383c-52.726-12.482-90.261-64.155-144.037-71.113
					c-36.226-4.688-72.047,12.23-108.575,11.365c-37.286-0.883-64.79-23.242-90.54-47.998
					c-33.306-32.016-80.614-76.657-131.614-60.004c-50.091,16.355-94.46,54.258-120.967,98.416
					c-26.527,44.189-36.828,97.348-29.371,148.016h916.014C783.608,421.201,800.863,404.238,784,391z"/>
			</g>
		</g>
		<g>
			<polygon fill="#144F4F" points="71.72,198.649 90.128,105.071 108.536,198.649 91.753,193.835 91.753,248.111 88.502,248.111 
				88.502,193.835 			"/>
			<polygon fill="#144F4F" points="126.593,119.445 145.001,188.95 128.219,184.137 128.219,214.339 124.968,214.339 
				124.968,184.137 108.185,188.95 			"/>
			<polygon fill="#144F4F" points="145.001,169.631 160.465,228.018 146.367,223.974 146.367,249.345 143.635,249.345 
				143.635,223.974 129.538,228.018 			"/>
			<polygon fill="#144F4F" points="583.844,306.717 593.48,343.107 584.693,340.589 584.693,356.402 582.991,356.402 
				582.991,340.589 574.202,343.107 			"/>
			<polygon fill="#144F4F" points="618.504,313.695 628.14,350.086 619.354,347.566 619.354,363.38 617.65,363.38 617.65,347.566 
				608.864,350.086 			"/>
			<polygon fill="#144F4F" points="473.587,294.121 483.224,330.514 474.437,327.992 474.437,343.807 472.734,343.807 
				472.734,327.992 463.947,330.514 			"/>
			<polygon fill="#144F4F" points="729.154,304.199 738.794,340.591 730.008,338.07 730.008,353.885 728.303,353.885 
				728.303,338.07 719.517,340.591 			"/>
			<polygon fill="#144F4F" points="248.353,227.673 257.624,265.105 253.297,263.865 257.624,281.332 249.171,278.908 
				249.171,294.121 247.533,294.121 247.533,278.908 239.081,281.332 243.408,263.865 239.081,265.105 			"/>
			<polygon fill="#144F4F" points="276.408,239.525 285.873,277.734 281.456,276.467 285.873,294.298 277.244,291.822 
				277.244,307.352 275.573,307.352 275.573,291.822 266.945,294.298 271.361,276.467 266.945,277.734 			"/>
			<polygon fill="#144F4F" points="558.643,292.072 568.107,330.281 563.691,329.014 568.107,346.846 559.479,344.37 
				559.479,359.896 557.808,359.896 557.808,344.37 549.18,346.846 553.596,329.014 549.18,330.281 			"/>
		</g>
	</g>
</g>
<polygon fill="#144F4F" points="771.5,404.93 798.5,542.5 -33.5,572.5 -39.5,404.93 239.081,362.5 "/>
</svg>
