<?xml version="1.0" encoding="utf-8"?>
<!-- Generator: Adobe Illustrator 16.0.3, SVG Export Plug-In . SVG Version: 6.00 Build 0)  -->
<!DOCTYPE svg PUBLIC "-//W3C//DTD SVG 1.1//EN" "http://www.w3.org/Graphics/SVG/1.1/DTD/svg11.dtd">
<svg version="1.1" xmlns="http://www.w3.org/2000/svg" xmlns:xlink="http://www.w3.org/1999/xlink" x="0px" y="0px" width="750px"
	 height="500px" viewBox="0 0 750 500" enable-background="new 0 0 750 500" xml:space="preserve">
<g id="BACKGROUND">
</g>
<g id="OBJECTS">
	<g>
		<g>
			<g>
				<path fill="#144F4F" d="M747.409,469.662c-23.574-18.503-46.164-39.957-75.037-48.727
					c-51.008-15.492-107.125,12.673-159.037,0.383c-52.724-12.482-90.259-64.155-144.037-71.113
					c-36.224-4.688-72.045,12.231-108.575,11.365c-37.286-0.883-64.79-23.242-90.54-47.998
					c-33.304-32.016-80.614-76.657-131.614-60.004c-50.091,16.356-94.46,54.258-120.967,98.417
					c-26.527,44.189-36.828,97.347-29.371,148.015h916.014C783.608,495.271,764.272,482.9,747.409,469.662z"/>
			</g>
		</g>
		<g>
			<polygon fill="#144F4F" points="71.72,283.72 90.128,190.141 108.536,283.72 91.753,278.905 91.753,333.181 88.502,333.181 
				88.502,278.905 			"/>
			<polygon fill="#144F4F" points="126.593,223.297 145.001,292.803 128.219,287.989 128.219,318.192 124.968,318.192 
				124.968,287.989 108.185,292.803 			"/>
			<polygon fill="#144F4F" points="145.001,254.701 160.465,313.088 146.367,309.044 146.367,334.415 143.635,334.415 
				143.635,309.044 129.538,313.088 			"/>
			<polygon fill="#144F4F" points="583.842,391.787 593.48,428.179 584.693,425.659 584.693,441.473 582.991,441.473 
				582.991,425.659 574.202,428.179 			"/>
			<polygon fill="#144F4F" points="618.502,398.765 628.14,435.156 619.354,432.637 619.354,448.45 617.65,448.45 617.65,432.637 
				608.864,435.156 			"/>
			<polygon fill="#144F4F" points="473.585,379.191 483.224,415.583 474.437,413.063 474.437,428.877 472.734,428.877 
				472.734,413.063 463.947,415.583 			"/>
			<polygon fill="#144F4F" points="726.654,426.27 736.292,462.661 727.506,460.142 727.506,475.955 725.803,475.955 
				725.803,460.142 717.017,462.661 			"/>
			<polygon fill="#144F4F" points="248.353,312.743 257.624,350.176 253.297,348.935 257.624,366.403 249.171,363.979 
				249.171,379.191 247.533,379.191 247.533,363.979 239.081,366.403 243.408,348.935 239.081,350.176 			"/>
			<polygon fill="#144F4F" points="276.408,324.596 285.873,362.805 281.456,361.537 285.873,379.368 277.244,376.893 
				277.244,392.421 275.573,392.421 275.573,376.893 266.945,379.368 271.361,361.537 266.945,362.805 			"/>
			<polygon fill="#144F4F" points="558.643,377.142 568.107,415.351 563.691,414.083 568.107,431.916 559.479,429.44 
				559.479,444.968 557.808,444.968 557.808,429.44 549.18,431.916 553.596,414.083 549.18,415.351 			"/>
		</g>
	</g>
</g>
</svg>
