<?xml version="1.0" encoding="utf-8"?>
<!-- Generator: Adobe Illustrator 16.0.3, SVG Export Plug-In . SVG Version: 6.00 Build 0)  -->
<!DOCTYPE svg PUBLIC "-//W3C//DTD SVG 1.0//EN" "http://www.w3.org/TR/2001/REC-SVG-20010904/DTD/svg10.dtd">
<svg version="1.0" id="Capa_1" xmlns="http://www.w3.org/2000/svg" xmlns:xlink="http://www.w3.org/1999/xlink" x="0px" y="0px"
	 width="1024px" height="1024px" viewBox="0 0 1024 1024" enable-background="new 0 0 1024 1024" xml:space="preserve">
<path fill="#FFCE00" d="M984.107,521.167c0,90.853-76.588,244.382-76.588,244.382l-706.136-4.866c0,0-73.244-150.777-73.244-239.516
	c0-236.369,191.615-427.983,427.983-427.983C792.492,93.184,984.107,284.798,984.107,521.167z"/>
<g>
	<path d="M395.819,915.08c-25.038-2.833-36.314-6.122-79.329-23.131c-51.886-20.526-62.613-23.037-98.672-23.09
		c-16.781-0.028-29.064,0.589-34.233,1.717c-18.688,4.096-40.609,12.66-57.027,22.286c-4.524,2.656-8.605,4.818-9.076,4.818
		c-2.214,0,8.016-8.82,17.708-15.265c29.278-19.479,53.471-26.044,90.845-24.688c29.75,1.074,56.559,8.082,101.868,26.607
		c33.388,13.64,49.458,17.963,74.576,20.004c29.428,2.402,51.901-1.505,100.618-17.507c66.775-21.909,95.157-24.11,162.439-12.566
		c32.328,5.547,52.869,6.969,69.166,4.78c27.117-3.639,47.82-11.397,78.119-29.239c29.924-17.627,53.873-24.621,84.576-24.688
		c28.152-0.066,50.68,5.988,74.561,20.044c16.029,9.438,22.998,17.385,7.72,8.807c-9.113-5.114-30.338-12.379-44.354-15.185
		c-43.551-8.687-77.959-2.697-116.862,20.353c-30.019,17.775-51.312,26.205-75.273,29.816c-24.809,3.745-46.033,2.391-90.402-5.759
		c-17.52-3.224-22.608-3.571-51.016-3.571c-29.896,0-32.396,0.188-47.658,3.773c-8.859,2.08-31.748,8.873-50.853,15.088
		c-19.292,6.283-41.08,12.445-49,13.868C436.927,915.456,410.21,916.704,395.819,915.08 M618.55,857.179
		c-6.605-0.752-18.498-3.84-30.851-8.001c-27.227-9.195-37.723-10.458-61.432-7.384c-9.947,1.302-22.942,2.351-28.864,2.336
		c-17.049-0.04-21.251-1.449-53.377-17.869c-13.156-6.725-22.137-9.142-33.965-9.113c-10.753,0.025-19.559,2.684-36.904,11.142
		c-31.2,15.21-42.342,18.379-64.601,18.366c-25.011-0.015-38.799-3.33-60.145-14.445c-10.229-5.344-27.158-17.614-25.95-18.822
		c0.229-0.239,4.578,2.108,9.641,5.208c10.658,6.525,22.473,11.748,36.729,16.205c8.741,2.727,12.809,3.142,30.878,3.142
		c19.104,0,21.802-0.311,32.891-3.8c6.646-2.094,21.144-8.281,32.22-13.76c22.81-11.276,31.763-13.988,46.315-13.988
		c14.352,0,23.493,2.793,43.563,13.316c9.641,5.048,20.782,10.243,24.782,11.531c9.532,3.088,23.373,3.075,45.403-0.053
		c24.004-3.411,38.475-1.879,63.996,6.727c38.973,13.156,61.123,12.659,97.92-2.203c42.354-17.117,53.176-19.922,76.614-19.922
		c14.341,0,16.646-0.39,32.609-5.464c40.838-12.995,57.619-15.385,107.131-15.225c37.133,0.107,80.078,3.183,85.582,6.107
		c1.289,0.687,2.35,2.739,2.35,4.565c0,3.101-0.44,3.302-7.047,3.261c-3.881-0.012-12.78-0.575-19.803-1.234
		c-7.021-0.672-27.252-1.624-44.973-2.12c-51.888-1.449-78.119,1.785-116.125,14.298c-15.988,5.263-17.693,5.558-36.314,6.027
		c-23.774,0.604-32.1,2.55-62.559,14.646c-30.408,12.067-40.545,15.211-54.035,16.754
		C637.115,858.911,633.558,858.883,618.55,857.179 M32.206,840.505c-3.907-3.906,6.203-12.889,25.238-22.419
		c17.506-8.768,27.267-11.035,46.933-10.928c15.306,0.08,18.741,0.536,27.91,3.704c12.312,4.243,24.178,10.148,29.817,14.835
		l4.026,3.343l-2.776,2.834l-2.78,2.831l-12.659-6.095c-23.669-11.397-44.074-14.138-65.138-8.768
		c-11.747,2.994-26.875,9.72-36.061,16.03C40.53,840.143,33.951,842.237,32.206,840.505 M643.385,825.175
		c-12.619-1.517-18.861-3.438-36.918-11.385c-8.859-3.907-22.15-9.438-29.535-12.284l-13.424-5.183l-116.044-0.361l-116.03-0.35
		l-4.122,3.905c-2.255,2.149-7.438,5.626-11.492,7.732c-6.739,3.492-8.619,3.827-21.506,3.827
		c-13.184,0.014-14.688-0.27-22.822-4.296c-10.968-5.424-19.573-13.666-25.104-24.07l-4.322-8.096l-55.418-0.899
		c-30.475-0.482-79.878-0.887-109.789-0.898c-29.91-0.014-55.014-0.472-55.806-1.021c-2.968-2.014-3.209-5.731-0.578-8.363
		c2.498-2.497,4.001-2.591,30.18-1.771l27.547,0.859l0.135-4.578c0.282-9.356-0.483-14.378-4.686-30.756l-4.296-16.781l-7.317-0.833
		c-7.477-0.845-21.68-6.376-23.357-9.104c-0.538-0.857,0.349-1.973,2.094-2.615c2.712-1.008,2.282-1.465-4.618-4.848
		c-8.016-3.921-9.396-5.88-4.941-7.048c3.827-1.008,3.33-2.483-1.504-4.484c-4.081-1.689-9.235-6.201-9.235-8.096
		c0-0.521,1.517-1.329,3.355-1.785c4.995-1.248,4.068-3.021-2.121-4.015c-3.355-0.536-5.263-1.489-4.927-2.47
		c0.296-0.888-2.685-5.559-6.618-10.376c-8.311-10.19-9.8-14.07-6.604-17.267c1.771-1.771,4.35-2.146,12.472-1.84
		c20.514,0.792,28.474,2.403,34.044,6.874c2.833,2.271,6.002,4.135,7.063,4.135c1.046,0,3.53,1.276,5.504,2.834l3.597,2.831
		l-0.859-3.839c-0.469-2.106-1.437-5.961-2.134-8.539c-0.684-2.577-1.624-14.726-2.08-26.969l-0.807-22.271l5.008-4.578
		c2.765-2.523,5.867-5.063,6.913-5.651c1.034-0.591,1.893-1.638,1.893-2.323c0-1.664-6.631,1.235-10.391,4.553
		c-2.537,2.228-3.544,2.402-6.444,1.087c-1.879-0.873-5.396-1.571-7.799-1.571c-6.229,0-8.203-2.415-4.482-5.519
		c2.938-2.44,2.938-2.44-2.859-2.495c-6.673-0.055-10.982-1.946-10.982-4.818c0-1.13-1.69-2.337-3.893-2.779
		c-4.793-0.953-14.298-10.311-12.848-12.646c2.482-4.016,32.663,1.383,41.214,7.384c6.067,4.255,6.47,1.878,0.739-4.498
		c-5.706-6.337-10.097-16.244-8.418-18.955c1.208-1.947,8.136-1.598,13.612,0.697c2.657,1.114,5.114,2.014,5.479,2.014
		c1.329,0-1.264-9.947-4.472-17.211c-5.034-11.383-2.967-13.425,8.149-8.027c3.838,1.865,6.551,2.483,7.356,1.679
		c0.697-0.699,2.792-13.357,4.657-28.125c5.304-42.167,11.654-69.647,24.219-104.713c18.284-51.054,42.784-94.658,77.702-138.275
		c14.646-18.312,52.976-56.237,73.381-72.602c17.115-13.747,42.273-30.904,63.566-43.389
		c58.25-34.126,130.222-56.532,198.755-61.875c22.485-1.758,67.901-1.732,85.569,0.041c65.472,6.578,111.332,19.775,166.279,47.859
		c35.455,18.11,66.668,39.361,94.899,64.587c10.634,9.504,11.802,11.317,9.761,15.129c-1.838,3.437-6.955,3.29-10.15-0.282
		c-3.504-3.933-32.271-26.997-46.182-37.025c-12.552-9.048-36.972-23.44-57.336-33.777C704.791,94.88,643.6,79.763,574.195,77.857
		c-85.061-2.323-169.812,18.688-243.608,60.412c-83.529,47.215-149.566,116.34-191.963,200.93
		c-23.144,46.155-40.502,105.129-43.897,149.136c-0.687,8.995-0.497,10.633,1.234,10.633c3.275,0,7.745,13.371,7.745,23.132
		c0,3.65,0.472,6.43,1.048,6.175c0.592-0.241,4.726-4.416,9.224-9.277c7.946-8.592,8.188-9.087,9.102-18.123
		c6.403-63.794,27.547-123.428,66.358-187.115l14.284-23.454l33.562-33.629c41.242-41.335,64.884-60.103,103.493-82.187
		c54.707-31.279,117.118-50.29,182.456-55.552c23.32-1.879,63.232-0.94,86.59,2.055c65.648,8.376,127,31.883,185.935,71.259
		c48.291,32.26,97.075,81.542,122.233,123.468c3.545,5.907,7.316,12.176,8.377,13.949c1.8,2.993,2.484,3.155,10.916,2.443
		c10.281-0.859,13.679,0.349,11.369,4.041c-0.953,1.53-4.067,2.765-8.631,3.423c-3.936,0.564-7.383,1.249-7.652,1.531
		c-0.27,0.268,2.31,6.148,5.73,13.062c47.23,95.249,58.775,194.634,33.309,286.433c-1.854,6.646-5.114,16.109-7.276,21.036
		c-4.631,10.579-4.82,12.728-1.234,13.867c1.531,0.484,2.685,2.027,2.685,3.6c0,2.483-0.563,2.658-5.785,1.879
		c-4.738-0.712-6.229-0.389-8.162,1.746c-2.256,2.482-2.242,2.63,0.094,3.343c1.344,0.415,6.484,1.383,11.438,2.146
		c11.52,1.813,13.155,2.484,13.155,5.451c0,2.512-7.489,6.577-22.688,12.324c-8.121,3.074-7.477,4.215,3.223,5.585
		c9.369,1.207,19.707,4.832,19.09,6.685c-0.28,0.848-2.065,2.419-3.973,3.492c-3.195,1.799-3.842,1.679-8.646-1.651
		c-2.859-1.975-7.289-3.935-9.854-4.336c-3.652-0.578-2.537,0.281,5.06,3.92c7.145,3.423,9.733,5.355,9.733,7.263
		c0,1.571-1.207,2.939-3.021,3.423c-5.664,1.52-16.566,0.872-19.209-1.127c-3.625-2.738-4.97-2.522-3.33,0.536
		c2.094,3.907,1.785,4.323-2.939,3.866c-2.807-0.269-4.832-1.422-5.746-3.275c-1.666-3.368-9.114-9.894-11.291-9.894
		c-0.83,0-3.328,3.799-5.545,8.443c-2.215,4.646-7.354,12.809-11.41,18.124l-7.368,9.68l11.771-0.055
		c6.473-0.04,32.072-0.577,56.896-1.193c24.811-0.632,46.707-0.832,48.666-0.456c2.819,0.536,3.543,1.435,3.543,4.4
		c0,2.057-0.847,4.057-1.892,4.458c-1.049,0.391-25.36,1.385-54.035,2.202c-28.676,0.806-79.02,2.363-111.885,3.438
		c-32.862,1.087-65.914,1.974-73.473,1.974c-13.601,0-13.746,0.04-14.592,3.423c-0.472,1.88-0.593,3.692-0.255,4.027
		c0.334,0.336,18.98-0.107,41.439-0.979c22.461-0.872,79.408-1.625,126.543-1.679l85.705-0.095l2.537,3.142
		c1.986,2.443,2.242,3.732,1.141,5.787c-1.369,2.563-2.658,2.604-56.692,1.69c-52.681-0.899-94.658-0.066-180.793,3.558
		l-31.535,1.329l-4.711,4.457c-2.604,2.457-6.847,5.692-9.424,7.196c-4.271,2.482-19.843,7.073-24.031,7.073
		c-0.939,0-8.457,2.658-16.701,5.907C675.457,824.664,660.181,827.2,643.385,825.175 M670.906,812.997
		c7.801-1.985,19.465-6.752,19.465-7.947c0-0.577-1.998-1.987-4.43-3.141c-2.44-1.155-5.557-3.344-6.928-4.847
		c-2.416-2.673-3.785-2.753-46.904-2.657c-44.344,0.106-44.424,0.106-37.725,2.495c3.69,1.328,13.25,5.249,21.238,8.74
		c7.975,3.478,18.243,7.168,22.821,8.216C647.144,815.83,661.24,815.468,670.906,812.997 M312.746,796.029
		c8.767-4.403,15.506-11.667,20.313-21.856c4.591-9.746,4.846-24.393,0.604-33.803c-3.986-8.821-12.793-17.856-21.681-22.22
		c-6.377-3.127-9.264-3.719-18.365-3.705c-9.935,0.014-11.426,0.402-18.769,4.753c-22.514,13.356-28.863,42.664-14.15,65.42
		c5.303,8.216,9.746,11.222,21.56,14.646C291.198,801.842,303.844,800.513,312.746,796.029 M731.787,792.968
		c9.021-4.806,14.822-11.076,18.984-20.473c8.82-19.923,0.98-43.47-16.137-48.558c-3.56-1.048-7.572-1.706-8.916-1.45
		c-1.355,0.256-2.75,0.51-3.113,0.563c-0.363,0.066,2.363,2.08,6.041,4.483c17.814,11.639,21.641,33.643,8.457,48.626
		c-7.289,8.282-14.592,11.945-23.922,12.014c-18.42,0.12-32.945-18.915-28.18-36.918c3.303-12.484,9.987-19.814,23.479-25.763
		l5.383-2.376l-8.727,0.431c-15.586,0.751-26.445,10.738-29.547,27.172c-2.068,11.009-0.979,18.108,4.2,27.292
		c4.808,8.513,8.888,12.392,17.964,16.995C707.505,799.949,720.109,799.196,731.787,792.968 M666.986,781.905
		c0.549-0.552-0.039-2.147-1.303-3.53c-4.43-4.899-23.896-5.263-221.428-4.107c-96.218,0.563-99.169,0.656-101.021,3.183
		c-4.928,6.737-13.813,6.416,160.427,5.92C592.935,783.114,666.435,782.455,666.986,781.905 M719.236,778.067
		c17.492-4.753,22.607-30.061,8.002-39.633c-11.412-7.478-27.254-2.134-32.221,10.86c-4.377,11.465-0.334,22.072,10.443,27.414
		C712.082,779.985,712.148,779.999,719.236,778.067 M162.803,759.982c0.725-1.895,1.314-8.392,1.314-14.433v-10.994l-6.041,0.471
		l-6.042,0.482v9.774c0,15.169,0.914,18.148,5.572,18.148C160.547,763.434,161.823,762.587,162.803,759.982 M188.149,761.46
		c3.974-1.396,6.551-1.585,8.979-0.671c4.243,1.61,42.168,1.73,42.168,0.134c0-0.644-2.55-1.505-5.651-1.92
		c-3.114-0.417-6.296-1.61-7.048-2.644c-0.967-1.317-5.92-2.19-16.098-2.834c-8.081-0.522-15.438-1.559-16.322-2.295
		c-0.888-0.738-2.646-3.505-3.895-6.137c-2.685-5.665-1.88-11.732,2.122-15.989c3.746-3.986,2.375-10.512-1.919-9.154
		c-3.799,1.208-5.88,4.095-7.68,10.593c-0.818,2.953-3.234,10.095-5.384,15.854c-2.147,5.772-3.906,11.962-3.906,13.761
		c0,2.818,0.632,3.275,4.523,3.275C180.537,763.434,185.088,762.547,188.149,761.46 M593.445,758.05l0.392-4.712l-113.159,0.441
		c-62.25,0.257-117.105,0.86-121.898,1.356c-7.894,0.833-8.765,1.224-9.182,4.148l-0.456,3.221l64.547-0.765
		c40.382-0.483,64.841-0.296,65.338,0.511c0.497,0.779,22.5,1.127,57.404,0.898l56.612-0.389L593.445,758.05 M659.414,761.741
		c2.646-1.342,3.599-3.355,4.9-10.444c2.107-11.383,4.564-17.104,10.07-23.372l4.469-5.103l-7.328,0.994
		c-14.527,1.96-19.32,7.76-19.375,23.507c-0.039,9.116-0.293,10.068-2.684,10.068c-5.424,0-7.625-10.819-4.617-22.742
		c1.92-7.65,7.785-14.553,15.652-18.405c6.12-2.993,7.881-3.142,43.188-3.624c24.891-0.335,38.449,0,41.885,1.033
		c6.633,1.987,12.513,9.236,16.019,19.761c3.221,9.707,5.071,11.667,9.864,10.459c3.226-0.805,3.492-1.438,3.492-8.122
		c0-6.337,0.564-7.881,4.402-12.069c4.016-4.39,5.223-4.873,13.412-5.531l9.008-0.724l-0.994-5.53
		c-0.551-3.035-0.871-14.125-0.725-24.648l0.256-19.13h-9.318h-9.33v17.372c0,10.136,0.566,17.72,1.342,18.203
		c1.841,1.141,1.693,5.664-0.213,6.847c-0.899,0.563-2.899-0.577-4.698-2.686c-2.912-3.37-3.142-4.807-3.142-19.56
		c0-8.768-0.363-16.889-0.82-18.058c-0.711-1.853-4.752-2.12-31.547-2.12h-30.729v8.631c0,17.373-3.517,20.179-26.66,21.239
		c-17.158,0.792-24.178,3.169-35.389,12.003c-8.472,6.671-17.91,30.299-16.902,42.342c0.322,3.933,1.371,5.624,4.98,8.039
		C643.064,763.849,653.884,764.534,659.414,761.741 M106.365,761.084c-0.094-3.49-3.894-27.521-4.43-28.071
		c-0.376-0.361-4.432-2.443-9.022-4.618l-8.35-3.946l0.845,3.72c0.457,2.04,1.732,7.638,2.806,12.443
		c1.088,4.807,2.001,11.195,2.015,14.203c0.027,3.021,0.457,5.895,0.953,6.378C92.416,762.426,106.391,762.332,106.365,761.084
		 M130.556,760.305c0-0.966-1.584-3.234-3.519-5.033c-1.933-1.785-5.557-6.257-8.055-9.947c-4.51-6.646-4.538-6.658-4.538-2.564
		c0,2.256,0.684,7.545,1.531,11.72l1.529,7.612h6.525C128.555,762.091,130.556,761.54,130.556,760.305 M142.638,747.968
		c0-13.773-0.08-14.164-3.356-15.652c-1.853-0.847-3.584-1.288-3.839-0.98c-0.27,0.295,0.456,7.343,1.597,15.654
		c1.45,10.512,2.618,15.103,3.84,15.103C142.223,762.091,142.638,758.722,142.638,747.968 M624.347,758.426
		c-0.563-4.806-5.127-6.378-14.98-5.141c-6.713,0.831-7.6,1.301-7.6,3.986c0,1.664,0.404,3.437,0.9,3.92
		c0.481,0.497,5.666,0.898,11.491,0.898h10.605L624.347,758.426 M814.552,759.406h33.912l0.979-16.902
		c0.537-9.303,0.455-17.386-0.176-17.963s-5.838-0.442-11.56,0.282l-10.403,1.33v9.062c0,7.128-0.59,9.813-2.777,12.605
		l-2.793,3.529h-22.139c-12.699,0-23.252,0.593-24.74,1.396c-1.531,0.819-2.592,2.792-2.592,4.859c0,3.183,0.363,3.41,4.188,2.632
		C778.761,759.782,795.904,759.406,814.552,759.406 M876.976,757.352c0-0.402-2.818-7.651-6.254-16.108
		c-4.795-11.773-6.849-15.398-8.728-15.398c-2.256,0-2.473,1.368-2.473,16.109v16.11h8.727
		C873.056,758.063,876.976,757.741,876.976,757.352 M894.779,746.317c16.148-24.516,16.404-24.984,12.914-24.019
		c-1.758,0.483-6.686,1.262-10.94,1.732c-8.578,0.953-8.203,0.401-9.693,13.894c-0.441,4.054-1.168,9.652-1.598,12.418
		C884.24,758.318,887.931,756.708,894.779,746.317 M129.052,740.854c-0.806-4.563-2.015-8.298-2.672-8.298
		c-1.705,0-1.489,2.553,0.913,10.634C130.046,752.438,130.892,751.31,129.052,740.854 M226.436,745.162
		c2.431-0.927,2.766-4.873,0.725-8.673c-1.222-2.281-2.899-2.591-14.096-2.591h-12.7v6.041v6.041h11.976
		C218.919,745.98,225.268,745.619,226.436,745.162 M363.813,745.136c1.665-0.442,3.021-1.584,3.021-2.537
		c0-3.169-18.257-29.429-24.11-34.69c-3.167-2.859-8.524-6.415-11.907-7.906c-12.043-5.329-47.74-5.531-60.157-0.349
		c-10.109,4.228-21.467,13.854-28.81,24.419c-2.888,4.176-3.895,7.168-3.895,11.666c0,8.148,1.976,8.848,5.505,1.934
		c10.781-21.13,26.46-32.972,45.483-34.341c23.306-1.664,43.913,9.988,54.491,30.824c2.511,4.938,5.626,9.598,6.927,10.362
		C353.033,746.075,359.262,746.357,363.813,745.136 M537.074,743.846c11.103-0.805,11.144-0.817,10.74-4.361l-0.418-3.571
		l-80.708,0.538l-80.725,0.536l-6.282-3.047c-4.631-2.241-10.135-7.466-21.009-19.99c-15.292-17.614-16.527-19.91-18.393-34.461
		l-0.968-7.464l-66.963-0.068c-73.152-0.067-69.245-0.509-69.271,7.908c-0.028,3.65,0.469,4.362,3.034,4.362
		c6.633,0,9.559,4.201,12.338,17.788c0.697,3.396,1.274,3.69,7.021,3.69c4.497,0,7.115,0.792,9.236,2.779l2.967,2.793l12.393-8.353
		c18.204-12.256,23.587-13.599,52.33-13.062c21.251,0.39,24.165,0.738,30.528,3.598c9.331,4.201,21.79,17.573,31.079,33.374
		c8.578,14.619,11.357,17.453,17.6,18.042C389.51,745.604,525.179,744.718,537.074,743.846 M625.048,743.296
		c0.362-0.376,1.088-2.336,1.598-4.363l0.928-3.691l-23.307,0.014c-12.82,0-29.199,0.39-36.396,0.873
		c-12.297,0.806-13.09,1.033-13.09,3.787c0,1.609,0.377,3.315,0.832,3.771C556.594,744.665,624.052,744.29,625.048,743.296
		 M816.564,735.24v-8.055l-7.719-0.256c-12.229-0.39-20.943,0.311-22.795,1.854c-0.953,0.792-1.705,4.295-1.705,7.961v6.551h16.108
		h16.109L816.564,735.24 M182.203,716.997c1.235-1.894,4.322-4.658,6.846-6.162c4.552-2.685,5.854-5.53,3.263-7.143
		c-1.96-1.208-1.559-8.859,0.671-12.753c1.061-1.854,1.947-6.137,1.96-9.52c0.106-13.356,7.787-27.869,19.748-37.348
		c8.137-6.444,14.312-9.531,28.3-14.138c6.095-2.014,11.076-4.147,11.076-4.766c0-0.604-2.805-2.054-6.229-3.221
		c-9.477-3.236-16.7-7.948-23.803-15.534c-7.894-8.457-7.048-10.793,3.936-10.793c8.806,0,12.753,1.437,17.236,6.282
		c3.706,3.987,4.848,2.737,1.519-1.663c-2.524-3.345-2.551-7.842-0.081-16.164c1.84-6.202,8.793-15.306,11.68-15.306
		c0.697,0,2.496,2.794,4.013,6.217c2.148,4.847,2.646,8.24,2.229,15.396l-0.51,9.185l2.551-4.042
		c2.792-4.402,8.564-7.962,12.899-7.962c4.377,0,3.209,3.531-2.536,7.641c-5.089,3.624-10.821,11.693-10.821,15.224
		c0,0.927,3.209-1.343,7.116-5.034c6.886-6.523,8.201-7.263,15.961-8.98c7.558-1.679,6.337,5.691-1.529,9.25
		c-2.887,1.302-6.941,4.188-9.036,6.429c-2.08,2.244-3.074,3.681-2.201,3.184c0.872-0.497,4.351-1.424,7.72-2.054
		c7.29-1.356,8.282,0.71,2.441,5.062c-2.913,2.188-3.195,2.766-1.302,2.805c1.315,0.027,4.337-0.764,6.712-1.758
		c2.376-0.994,7.343-2.523,11.035-3.409c4.552-1.102,7.196-2.564,8.216-4.579c0.819-1.637,6.458-11.719,12.525-22.433
		c6.067-10.713,14.634-26.501,19.022-35.106c9.185-18.027,13.398-22.217,30.623-30.554c8.255-3.987,13.29-5.491,20.754-6.188
		c5.41-0.512,10.499-1.328,11.305-1.825c0.805-0.512,3.169-3.424,5.222-6.498c5.075-7.545,46.075-50.048,48.275-50.048
		c0.968,0,6.283,2.241,11.814,4.979l10.068,4.981l3.785-3.639l3.799-3.638h35.885c28.85,0,36.824,0.389,40.689,2.014
		c3.385,1.41,9.666,2.015,21.012,2.015h16.176l-7.961-6.162c-12.188-9.438-41.59-36.503-57.176-52.639
		c-12.605-13.049-22.313-26.42-32.26-44.45c-1.264-2.282-2.779-4.121-3.356-4.094c-0.591,0.027-4.873,5.316-9.518,11.747
		c-4.646,6.431-11.184,15.318-14.526,19.748c-3.343,4.43-8.229,11.988-10.861,16.781c-10.149,18.5-15.305,26.77-26.554,42.543
		c-11.706,16.418-13.788,18.432-17.479,17.009c-4.229-1.625-3.396-3.249,15.761-30.757c4.147-5.933,11.103-17.411,15.466-25.507
		c9.934-18.432,13.425-23.95,20.955-33.213c3.317-4.068,8.283-10.62,11.05-14.58c7.397-10.551,12.78-15.908,16.002-15.908
		c3.96,0,7.182,3.853,16.661,19.841c4.496,7.599,11.154,17.869,14.779,22.822c9.344,12.767,54.438,55.243,68.119,64.184
		c8.858,5.787,9.625,7.115,5.866,10.163c-3.036,2.457-3.021,2.471,5.087,2.471c15.063,0,17.772,3.29,18.313,22.15l0.334,12.082
		l31.24,0.362l31.24,0.363l11.559-6.243c12.445-6.712,41.697-24.179,43.617-26.03c1.569-1.517-7.854-6.148-31.373-15.452
		c-10.713-4.229-30.207-12.524-43.351-18.433l-23.868-10.753l-16.38-17.627c-9.02-9.679-20.659-21.989-25.883-27.333
		c-9.276-9.491-9.586-9.679-14.028-8.403c-6.146,1.758-8.537,0.013-18.701-13.694c-20.217-27.292-18.781-25.749-21.601-23.198
		c-2.471,2.242-2.416,2.484,2.107,9.559c10.338,16.164,28.193,38.529,39.897,49.967c15.104,14.768,24.568,22.434,45.027,36.409
		c21.373,14.606,22.313,15.398,21.305,18.001c-1.813,4.713-5.088,3.666-20.698-6.631c-23.925-15.787-35.968-25.171-50.48-39.375
		c-13.274-12.982-31.83-34.569-39.373-45.806c-6.041-9.008-22.86-40.556-35.776-67.124c-6.284-12.915-15.56-29.991-20.594-37.925
		c-5.048-7.948-10.847-17.197-12.875-20.554l-3.677-6.108l-13.774,13.948c-13.707,13.908-20.352,18.418-27.117,18.418
		c-4.202,0-9.948,2.766-12.981,6.243c-2.175,2.497-7.88,13.076-32.73,60.708l-13.572,26.004l-12.002,5.182
		c-6.605,2.846-12.727,5.196-13.586,5.208c-0.859,0.014-4.417,5.316-7.895,11.774c-3.477,6.457-12.672,22.325-20.458,35.24
		c-15.292,25.413-22.755,34.112-35.441,41.389c-7.935,4.538-16.352,12.377-43.415,40.503
		c-21.643,22.474-38.438,36.448-82.335,68.453c-7.988,5.826-9.52,7.478-7.948,8.646c3.945,2.912,9.102,12.835,9.102,17.521
		c0,6.215-1.705,5.986-4.699-0.659c-1.342-2.966-2.765-5.062-3.167-4.658c-1.222,1.222-1.478,32.863-0.269,32.863
		c0.617,0,1.542-1.664,2.026-3.69c1.384-5.611,7.21-13.347,11.236-14.889c8.807-3.368,9.895-3.368,9.411-0.014
		c-0.295,2.081-2.106,3.92-5.329,5.438c-4.122,1.933-10.552,9.423-10.552,12.297c0,0.457,3.369-1.329,7.478-3.96
		c7.385-4.713,11.317-5.196,11.317-1.37c0,1.074-3.167,4.779-7.048,8.243l-7.048,6.296l5.37-0.779
		c2.954-0.442,8.672-1.704,12.714-2.831c12.391-3.464,25.562-2.242,25.534,2.362c0,1.758-7.96,7.665-10.324,7.665
		c-0.778,0-1.771,1.288-2.173,2.847c-0.633,2.402-1.357,2.698-4.525,1.839c-2.067-0.563-8.31-1.209-13.841-1.437l-10.069-0.416
		l5.505,4.953c3.519,3.169,5.303,5.813,4.94,7.316c-0.886,3.639-4.98,2.792-11.344-2.337c-6.295-5.073-11.544-8.162-12.391-7.276
		c-0.296,0.296-0.968,5.988-1.504,12.634l-0.967,12.083l2.94-3.691c2.618-3.275,3.84-3.691,10.874-3.691
		c8.808,0,18.138,3.114,20.057,6.686c1.248,2.351-0.121,9.532-2.537,13.304c-0.658,1.034-3.53,2.242-6.377,2.713l-5.169,0.847
		l-0.201,32.045l-0.215,32.029l3.087-7.584C178.55,723.855,180.953,718.891,182.203,716.997 M880.763,726.784
		c-0.392-4.257-0.687-4.592-2.738-3.075c-1.986,1.464-2.094,2.31-0.727,5.934C879.287,734.893,881.326,733.201,880.763,726.784
		 M546.58,729.052c0.617-0.536,0.188-58.665-0.457-59.298c-0.241-0.24-44.987-0.012-99.425,0.524l-98.98,0.953l0.631,9.866
		c0.684,10.78,1.583,12.525,13.854,26.972c11.626,13.691,20.271,21.572,24.299,22.149
		C390.892,730.852,545.787,729.723,546.58,729.052 M614.32,728.998l14.297-0.872l3.691-7.505
		c9.922-20.151,28.166-29.574,57.432-29.656c13.574-0.039,15.398-1.637,15.398-13.545v-9.329l-74.844,0.35l-74.843,0.35
		l-0.362,30.54l-0.361,30.542h22.646C589.82,729.871,606.441,729.482,614.32,728.998 M118.448,723.414
		c-0.013-4.242-3.302-18.794-4.511-20.004c-1.679-1.678-2.067,0.552-0.912,5.061c0.658,2.539,1.583,8.098,2.081,12.353
		C115.978,728.475,118.487,730.408,118.448,723.414 M164.549,696.939l-0.873-27.884l-4.135-4.738l-4.147-4.726l-0.859,12.646
		c-0.471,6.966-0.927,22.137-1.007,33.723l-0.148,21.063l5.035,0.417c2.767,0.229,5.478-0.27,6.016-1.102
		C164.978,725.508,165.018,712.271,164.549,696.939 M232.357,720.85c2.27-3.477,3.8-6.646,3.396-7.048
		c-0.39-0.389-4.135-0.792-8.323-0.898c-4.177-0.095-11.371-0.631-15.989-1.196l-8.392-1.006v7.479c0,8.727-0.16,8.618,14.942,8.847
		l10.245,0.162L232.357,720.85 M958.869,725.173c-1.854-1.061-5.17-1.894-7.385-1.866l-4.027,0.055l4.699,1.813
		c2.578,0.993,5.906,1.84,7.383,1.865C961.888,727.079,961.808,726.851,958.869,725.173 M108.487,718.555
		c-0.497-3.344-1.558-6.471-2.349-6.968c-1.008-0.618-1.155,1.101-0.472,5.68c0.551,3.61,1.289,7.062,1.666,7.664
		C108.808,727.319,109.358,724.313,108.487,718.555 M96.672,716.675c-0.912-3.813-2.309-6.94-3.113-6.94
		c-0.807,0-2.888-1.503-4.619-3.356c-3.785-4.039-6.134-4.255-8.027-0.737c-1.143,2.16-0.618,3.518,2.913,7.545
		c3.799,4.311,13.276,11.491,14.163,10.727C98.176,723.75,97.573,720.499,96.672,716.675 M144.545,681.878
		c0.484-23.44,1.182-44.584,1.558-46.987c0.939-5.934-1.275-5.666-9.531,1.193c-8.538,7.104-14.124,9.426-22.863,9.492
		c-8.563,0.08-10.002-0.726-10.002-5.572c0-5.087,3.975-7.504,17.749-10.793c18.982-4.537,18.459-3.852,6.792-8.9
		c-9.827-4.24-16.458-9.732-16.485-13.611c0-0.928,0.778-1.679,1.731-1.679c3.584,0,17.345,4.122,22.433,6.712l5.277,2.698
		l-5.384-11.089c-3.168-6.511-6.068-10.834-7.008-10.482c-3.719,1.342-14.499,0.401-20.217-1.786
		c-3.385-1.304-7.761-4.271-9.721-6.593l-3.57-4.241l0.805,4c0.442,2.202,1.719,13.667,2.847,25.479
		c1.114,11.814,3.007,31.146,4.188,42.96c1.181,11.813,2.604,26.139,3.168,31.843c0.953,9.733,2.818,14.474,5.678,14.474
		c0.686,0,0.846-2.094,0.35-4.753c-0.497-2.657-0.161-7.396,0.777-10.739c1.666-5.934,1.732-5.988,7.599-5.988
		c5.316,0,5.774,0.242,4.592,2.458c-0.726,1.354-2.256,3.249-3.41,4.188c-3.006,2.511-2.671,12.442,0.604,17.828l2.672,4.389
		l0.014-4.967c0-5.678,3.423-19.802,5.223-21.602c1.825-1.825,6.271-0.4,5.652,1.813c-0.296,1.062-0.833,7.6-1.182,14.514
		c-0.591,11.72-0.362,13.144,3.142,20.474c2.067,4.351,4.188,7.894,4.712,7.894C143.243,724.501,144.062,705.316,144.545,681.878
		 M133.241,722.394c0-0.43-0.966-1.731-2.134-2.899c-1.813-1.813-2.322-1.854-3.343-0.241c-1.919,3.034-1.45,3.907,2.12,3.907
		C131.738,723.159,133.241,722.81,133.241,722.394 M844.087,718.486c4.067-1.128,5.385-1.866,3.354-1.893
		c-1.852-0.016-5.166,0.806-7.383,1.812C834.89,720.783,835.789,720.797,844.087,718.486 M820.593,715.695
		c0-1.155-0.617-1.72-1.367-1.25c-0.752,0.471-1.008,1.408-0.592,2.096C819.787,718.405,820.593,718.058,820.593,715.695
		 M908.203,714.916c3.854-2.066,2.672-9.438-1.69-10.578c-11.586-3.035-10.056-3.935-15.707,9.275l-1.935,4.537l8.418-0.953
		C901.921,716.675,906.834,715.654,908.203,714.916 M870.294,664.6c0.872-25.748,1.366-49.241,1.112-52.195l-0.471-5.369
		l-2.375,4.35c-3.398,6.202-7.264,8.271-20.688,10.994c-11.424,2.337-11.706,2.47-7.813,4.028
		c12.955,5.182,27.307,19.667,25.736,25.977c-2.808,11.317-3.601,17.492-4.687,36.543c-0.684,11.813-0.979,22.164-0.658,22.983
		c0.31,0.832,1.896,2.107,3.519,2.846c2.336,1.047,3.129,0.846,3.84-1.007C868.304,712.473,869.421,690.362,870.294,664.6
		 M881.474,711.305c1.799-1.985,2.055-4.067,1.354-10.78c-0.832-7.986-2.577-11.705-3.731-7.986
		c-1.248,3.986-2.053,21.224-0.992,21.224C878.736,713.761,880.253,712.66,881.474,711.305 M130.569,710.069
		c0.015-1.289,0.404-3.854,0.86-5.706c0.563-2.295,0.39-2.927-0.552-2.015c-2.094,2.027-3.504,10.069-1.771,10.069
		C129.898,712.419,130.569,711.358,130.569,710.069 M847,706.082c1.718,0.322,3.142,0.229,3.154-0.229
		c0.014-0.441,0.914-9.881,2-20.957c3.035-31.077,3.088-30.647-3.69-33.694c-3.127-1.396-8.271-4.511-11.41-6.9l-5.722-4.364v4.483
		c0,2.779,1.021,5.411,2.687,6.915c3.867,3.489,3.504,6.511-0.672,5.719c-2.765-0.536-3.355-0.121-3.355,2.362
		c0,1.651,0.859,3.706,1.894,4.578c3.115,2.578,7.117,12.364,8.137,19.896c0.535,3.879,1.477,6.726,2.105,6.335
		c1.707-1.046,4.096,4.188,3.104,6.794c-0.471,1.235-3.344,4.604-6.377,7.479l-5.506,5.249l5.264-2.135
		C841.51,706.445,845.281,705.747,847,706.082 M817.558,701.344c0.738-0.927,1.731-7.264,2.229-14.097
		c1.062-14.526-0.121-18.177-5.664-17.532c-3.223,0.375-3.69,1.113-4.483,7.128c-0.496,3.692-0.939,11.089-1.006,16.445
		l-0.123,9.733h3.869C814.498,703.021,816.834,702.27,817.558,701.344 M834.503,683.704c-1.009-5.25-1.841-10.15-1.841-10.889
		c-0.014-0.738-0.616-0.443-1.33,0.671c-0.709,1.114-1.301,8.364-1.313,16.109l-0.014,14.097l3.153-5.223
		C836.22,693.409,836.261,692.967,834.503,683.704 M208.998,699.57c3.558-3.557-1.491-10.431-5.331-7.235
		c-2.402,1.986-2.578,7.532-0.281,8.458C206.165,701.907,206.796,701.773,208.998,699.57 M950.611,699.518
		c8.205-2.335,13.158-5.384,6.244-3.84c-8.902,1.986-13.518,3.384-15.439,4.633C938.344,702.338,941.753,702.041,950.611,699.518
		 M70.145,699.034c0-0.711-0.913-0.953-2.015-0.523c-1.1,0.416-2.014,1.007-2.014,1.304c0,0.28,0.914,0.522,2.014,0.522
		C69.232,700.337,70.145,699.746,70.145,699.034 M944.099,686.777c0-3.168-2.105-4.323-6.053-3.344
		c-2.939,0.739-4.687,4.618-4.9,10.861c-0.027,0.737-0.67,2.497-1.424,3.906c-0.75,1.409,1.719-0.041,5.506-3.224
		C941.013,691.785,944.099,688.094,944.099,686.777 M95.813,679.77c-0.806-8.256-2.417-27.695-3.584-43.199
		c-2.483-32.918-5.424-54.265-7.799-56.642c-0.458-0.456-3.92,2.256-7.693,6.041l-6.874,6.86l0.766,9.116
		c0.431,5.021,1.167,16.271,1.624,25.022c0.618,11.519,1.262,15.492,2.322,14.433c2.928-2.927,6.243-1.503,8.968,3.84
		c2.122,4.175,2.712,7.921,2.712,17.412c0,9.786,0.363,11.962,1.867,11.371c2.523-0.969,6.806,10.242,5.652,14.82
		c-0.82,3.315,2.04,10.323,3.02,7.384C97.061,695.438,96.619,688.025,95.813,679.77 M907.853,695.746
		c0-3.721-1.664-6.149-4.229-6.149c-7.437,0-21.828-12.243-21.023-17.868c0.592-4.096,7.693-5.194,17.063-2.672
		c10.474,2.818,11.037,2.793,12.312-0.563c1.008-2.646,0.35-3.37-5.853-6.472c-11.223-5.61-18.444-14.042-12.028-14.042
		c1.289,0,6.082,1.771,10.635,3.92c7.127,3.369,8.402,3.625,9.1,1.825c1.209-3.169-2.577-6.483-12.149-10.658
		c-4.738-2.056-8.39-4.363-8.121-5.13c0.738-2.094,12.66-1.207,16.379,1.235l3.287,2.161v-6.967c0-8.861,5.371-18.997,9.707-18.353
		c6.137,0.912,10.352,17.6,7.076,27.949l-0.888,2.793l5.035-2.698c8.9-4.766,23.371-5.344,23.371-0.927
		c0,1.034-2.066,2.148-4.846,2.592c-2.672,0.443-9.009,2.43-14.097,4.417c-6.807,2.672-9.25,4.295-9.25,6.121
		c0,2.147,0.726,2.377,5.369,1.624c6.688-1.06,6.996,0.888,0.672,4.283c-3.866,2.081-4.698,3.288-4.698,6.847
		c0,2.376,0.592,4.672,1.303,5.115c1.209,0.751,2.026-1.396,3.008-7.896c0.24-1.597,2.334-3.222,5.572-4.349
		c2.856-0.98,7.651-4.015,10.672-6.74c5.893-5.328,7.719-4.456,4.914,2.323c-2.162,5.234-8.191,10.188-14.795,12.162
		c-2.914,0.873-5.303,2.081-5.303,2.687c0,0.591,0.911,0.736,2.026,0.309c1.115-0.43,5.195-1.168,9.063-1.639l7.032-0.859
		l6.968-20.446c9.961-29.291,14.971-56.518,17.145-93.303c0.687-11.57,0.496-13.222-1.598-14.457
		c-1.303-0.766-16.875-9.424-34.599-19.237c-30.057-16.634-56.289-32.597-70.45-42.853c-3.316-2.403-16.515-12.216-29.334-21.815
		c-12.822-9.599-24.38-18.229-25.683-19.171c-2.08-1.503-5.625,0.472-28.393,15.789c-36.933,24.835-52.144,34.743-57.9,37.736
		c-2.752,1.423-7.613,4.255-10.809,6.269l-5.787,3.68h12.822c9.559,0,13.881,0.577,17.008,2.296
		c4.633,2.536,8.512,9.531,9.545,17.196l0.672,5.009l8.229,0.846c11.693,1.208,17.146,2.967,23.496,7.558
		c10.793,7.827,15.959,18.017,19.088,37.576c0.767,4.807,1.826,9.17,2.378,9.721c0.536,0.551,4.459,1.69,8.698,2.55
		c7.316,1.465,8.082,1.355,15.09-2.188c6.658-3.37,8.229-3.639,16.205-2.832c9.813,1.006,9.8,0.71-0.188-6.553
		c-12.338-8.954-16.447-14.283-12.258-15.88c2.498-0.954,14.647,4.791,20.715,9.8c2.699,2.214,5.69,4.041,6.66,4.041
		c2.912,0-0.472-5.102-9.922-14.97c-12.015-12.552-10.994-16.659,2.858-11.479c10.217,3.84,9.465,2.672,14.943,23.092
		c0.856,3.223,1.233,1.731,1.865-7.384c0.442-6.27,1.598-16.646,2.59-23.037c1.881-12.229,1.021-19.722-1.504-13.211
		c-0.726,1.854-1.662,8.793-2.107,15.439l-0.805,12.082l-3.115-6.713c-4.174-9.007-3.959-14.754,0.9-24.284
		c7.813-15.332,8.793-15.574,16.754-4.002c4.283,6.216,5.315,8.995,5.799,15.574c0.404,5.543,0.014,8.711-1.262,10.255
		c-1.691,2.042-1.558,2.067,1.518,0.418c5.234-2.82,19.773-6.404,21.547-5.304c1.224,0.765,1.224,2.08-0.014,5.825
		c-0.873,2.657-1.234,5.976-0.793,7.356c0.442,1.396,0.174,4.216-0.617,6.27c-2.105,5.572-11.236,15.883-16.592,18.769
		c-5.828,3.143-5.236,4.552,1.436,3.464c4.271-0.686,5.813-1.959,9.947-8.175c6.229-9.397,9.332-12.123,14.125-12.474
		c5.529-0.389,4.857,1.854-3.344,11.185c-3.961,4.482-6.861,8.511-6.443,8.914c0.414,0.417,6.229-1.128,12.928-3.423
		c12.377-4.258,24.23-5.451,28.23-2.834c1.652,1.073,0.658,2.552-5.369,8.055c-7.02,6.418-7.678,6.727-13.424,6.095l-6.043-0.657
		l3.936,2.148c3.609,1.96,3.746,2.282,1.611,3.854c-2.283,1.663-7.789,1.489-18.301-0.591c-2.576-0.511-5.756-0.697-7.047-0.431
		c-3.449,0.739-2.873,3.235,0.672,2.9c1.664-0.162,5.33,0.725,8.147,1.974c2.832,1.248,6.297,1.892,7.719,1.45
		c1.425-0.457,2.593-0.242,2.593,0.469c0,3.315-12.164,4.041-14.793,0.874c-0.941-1.129-2.017-1.747-2.392-1.357
		c-0.389,0.376,0.431,1.947,1.813,3.465c2.146,2.377,2.229,2.967,0.551,4.026c-3.156,1.987-4.324,1.57-12.07-4.268
		c-10.403-7.841-12.979-8.862-15.651-6.19c-1.894,1.894-2.242,8.122-2.752,48.236l-0.578,46.061l9.143,4.362
		C898.322,697.946,907.853,699.155,907.853,695.746 M924.837,683.125c-0.979-10.457-2.968-13.463-4.281-6.456
		c-0.847,4.511-0.215,11.263,1.625,17.506c0.725,2.456,0.817,2.456,2.119,0.146C925.078,692.912,925.306,688.188,924.837,683.125
		 M57.526,693.45c3.382-0.847,5.786-2.176,5.477-3.021c-0.873-2.47-9.102-1.288-12.136,1.732
		C47.645,695.396,48.853,695.638,57.526,693.45 M81.972,689.65c2.967-4.001,3.959-9.451,1.744-9.451
		c-0.657,0-2.295,2.563-3.65,5.705c-1.343,3.143-2.672,6.162-2.94,6.713C75.783,695.343,79.395,693.141,81.972,689.65
		 M955.406,690.913c2.242-2.244-5.17-1.519-8.028,0.792c-2.457,1.999-2.351,2.066,2.055,1.314
		C951.996,692.592,954.681,691.636,955.406,690.913 M73.421,689.476c-0.497-0.807-0.859-7.598-0.792-15.103l0.094-13.64
		l-2.632,3.169c-2.979,3.584-3.194,5.248-1.314,10.188c1.061,2.778,0.818,3.975-1.181,5.975c-2.444,2.442-2.417,2.604,1.678,6.687
		C73.608,691.087,74.978,692,73.421,689.476 M914.15,684.589c-0.336-1.302-0.631-0.563-0.67,1.651
		c-0.027,2.216,0.254,3.29,0.629,2.376C914.474,687.704,914.5,685.892,914.15,684.589 M45.98,686.389
		c0-0.297-2.106-0.777-4.699-1.073c-2.59-0.297-4.698-0.068-4.698,0.522c0,0.59,2.108,1.074,4.698,1.074
		C43.873,686.912,45.98,686.671,45.98,686.389 M907.853,681.019c0-2.066-9.143-6.188-13.732-6.188c-2.686,0-2.752,0.188-0.846,2.107
		c1.84,1.84,10.793,5.719,13.572,5.895C907.396,682.857,907.853,682.039,907.853,681.019 M930.677,680.038
		c0-0.737-0.604-0.966-1.342-0.511c-0.738,0.456-1.345,1.438-1.345,2.175c0,0.739,0.605,0.967,1.345,0.511
		C930.073,681.757,930.677,680.776,930.677,680.038 M47.323,676.198c0-0.711-1.463-2.269-3.249-3.438
		c-3.167-2.08-4.497-1.84-10.135,1.799c-0.35,0.229,0.255,0.98,1.342,1.665C37.899,677.891,47.323,677.863,47.323,676.198
		 M62.976,666.452c-0.833-7.048-2.699-10.418-5.747-10.418c-1.021,0-1.854,0.269-1.854,0.604c0,2.71,3.276,15.184,4.337,16.498
		C62.264,676.306,63.768,673.218,62.976,666.452 M79.395,661.404c0.08-1.854-0.524-5.746-1.342-8.659
		c-1.169-4.242-1.706-4.86-2.7-3.087c-0.765,1.368-0.617,5.879,0.403,12.002c1.274,7.704,1.825,9.088,2.578,6.457
		C78.844,666.265,79.327,663.257,79.395,661.404 M50.653,660.988c-0.953-6.351-5.048-14.353-7.345-14.353
		c-1.557,0-1.73,3.169-0.495,9.345c0.644,3.182,1.193,3.824,2.134,2.511c0.913-1.275,1.086-0.953,0.63,1.141
		c-0.604,2.767,3.866,9.492,5.344,8.028C51.27,667.313,51.149,664.304,50.653,660.988 M339.312,661.472v-4.645l-31.534,0.4
		c-17.345,0.216-31.912,0.618-32.355,0.899c-0.456,0.269-13.438,0.578-28.876,0.672c-27.091,0.161-37.456,1.45-37.456,4.619
		c0,2.025,23.844,2.846,79.879,2.765l50.343-0.08V661.472 M544.378,663.231c1.731-0.484,2.35-2.068,2.35-6.003
		c0-5.274-0.053-5.329-4.363-4.672c-2.401,0.361-34.26,1.008-70.815,1.41c-70.586,0.805-120.406,1.934-123.172,2.805
		c-0.927,0.282-1.679,2.432-1.679,4.767v4.229l97.666-0.927C498.075,664.331,543.089,663.606,544.378,663.231 M180.953,662.653
		c1.37-2.202,0.471-2.417-6.766-1.53c-6.134,0.751-6.363,0.898-2.686,1.73C177.704,664.264,179.987,664.223,180.953,662.653
		 M798.804,662.102c2.375-0.885,4.563-7.249,3.57-10.39c-0.927-2.899,0.94-2.899-184.162-0.202l-63.433,0.928v5.062
		c0,3.649,0.619,5.169,2.244,5.49C560.566,663.674,796.898,662.801,798.804,662.102 M33.898,660.653
		c0-1.356-8.296-7.867-14.968-11.774c-3.584-2.094-6.513-3.262-6.513-2.604c0,1.945,6.928,7.961,13.425,11.665
		C31.911,661.392,33.898,662.05,33.898,660.653 M820.593,649.913c0-8.257-0.47-10.458-2.736-12.729
		c-1.504-1.503-3.316-2.36-4.027-1.934c-0.713,0.444-1.291,5.921-1.291,12.177c0,10.565,0.216,11.465,3.021,12.514
		c1.664,0.63,3.479,0.887,4.026,0.55C820.136,660.17,820.593,655.404,820.593,649.913 M37.361,652.223
		c-2.47-4.779-3.597-5.599-9.666-6.968c-5.544-1.249-5.974,0.456-0.671,2.658c2.135,0.887,5.559,3.369,7.625,5.517
		C39.187,658.169,40.207,657.712,37.361,652.223 M174.535,655.107c-1.273-0.336-3.69-0.35-5.37-0.025
		c-1.664,0.322-0.617,0.604,2.336,0.616C174.455,655.712,175.826,655.443,174.535,655.107 M292.286,651.416
		c25.815-0.495,47.147-1.087,47.39-1.343c0.24-0.241,0.979-5.49,1.649-11.666c1.786-16.7,6.74-31.724,15.104-45.831
		c4.026-6.82,10.244-17.654,13.801-24.099c3.558-6.443,8.511-13.693,11.008-16.109l4.538-4.404l77.287-0.361l77.271-0.376
		l6.003,3.519c10.135,5.946,10.297,6.874,9.25,54.827l-0.9,41.496l38.65-0.873c21.252-0.483,71.26-1.209,111.129-1.611
		c39.873-0.39,78.08-1.061,84.914-1.477l12.416-0.752V635.4c0-15.937-6.912-60.358-11.57-74.428
		c-3.103-9.384-8.15-15.922-14.713-19.104c-5.842-2.818-5.922-2.833-153.595-2.687c-102.188,0.096-149.404-0.308-153.138-1.313
		c-4.162-1.114-5.908-2.511-7.599-6.082l-2.214-4.632l-23.588,0.055c-34.825,0.066-47.646,1.489-58.021,6.442
		c-4.713,2.242-10.03,5.639-11.815,7.545l-3.248,3.464l4.241,3.664c6.431,5.572,6.593,9.036,0.846,18.434
		c-2.711,4.431-11.223,18.459-18.915,31.188c-7.692,12.713-15.291,24.042-16.901,25.171c-3.262,2.281-9.908,2.657-14.701,0.846
		c-2.134-0.818-4.886-0.578-8.483,0.752c-5.438,2-24.247,6.055-36.061,7.772c-15.385,2.229-45.954,13.772-50.867,19.21
		c-2.068,2.271-1.558,2.351,10.86,1.491C239.473,652.705,266.469,651.899,292.286,651.416 M449.048,647.859
		c53.351-0.86,97.087-1.639,97.183-1.731c0.094-0.082,0.443-3.934,0.752-8.553l0.59-8.391h-40.396
		c-44.92,0-44.813,0.014-48.598-9.021c-1.585-3.813-1.771-10.028-1.034-34.729l0.886-30.085h-33.71
		c-39.309,0-34.743-1.799-46.49,18.271c-4.282,7.303-9.491,15.773-11.573,18.834l-3.785,5.572l4.524,0.521
		c4.457,0.524,4.617,0.352,13.72-14.752c12.283-20.38,14.862-22.556,28.192-23.803c15.56-1.464,36.985,0.187,39.079,3.007
		c1.208,1.624,1.678,9.692,1.678,28.917c0,27.949-0.872,32.851-6.39,35.723c-1.289,0.658-17.089,1.652-35.119,2.189
		c-30.863,0.913-32.917,1.127-35.025,3.731c-2.938,3.638-5.61,1.879-5.088-3.356c0.229-2.403-0.295-4.351-1.274-4.687
		c-0.927-0.32-1.679,0.377-1.679,1.545c0,2.442-6.672,2.953-10.687,0.805c-3.813-2.039-5.316,1.021-6.309,12.754
		c-0.793,9.412-0.658,10.404,1.328,9.64C351.047,649.806,395.697,648.718,449.048,647.859 M923.83,634.299
		c0.134-7.879-1.625-11.41-3.047-6.106c-1.088,4.026-1.021,12.955,0.107,17.104l0.912,3.355l0.938-3.355
		C923.265,643.442,923.763,638.502,923.83,634.299 M856.841,645.415c0-1.638-12.029-9.519-14.539-9.519
		c-4.484,0,6.994,8.605,14.203,10.646C856.693,646.597,856.841,646.087,856.841,645.415 M124.033,637.214
		c2.685-0.753,5.705-2.377,6.712-3.6c1.625-1.986,1.518-2.12-0.86-1.182c-1.476,0.593-5.88,1.841-9.8,2.779
		c-3.906,0.94-7.478,2.081-7.934,2.537C110.836,639.066,118.648,638.703,124.033,637.214 M202.379,623.077l4.027-1.974l-4.537,0.685
		c-2.482,0.375-5.396,0.685-6.444,0.685c-1.061,0-1.558,0.604-1.101,1.344C195.438,625.613,197.56,625.426,202.379,623.077
		 M816.673,618.66c-4.685-9.184-8.375-9.545-4.752-0.456c1.813,4.522,5.194,7.464,7.09,6.161
		C819.25,624.204,818.191,621.641,816.673,618.66 M273.531,622.473l2.685-1.154l-2.685-0.066c-1.477-0.041-3.598,0.509-4.699,1.222
		c-1.784,1.155-1.784,1.289,0,1.223C269.933,623.654,272.054,623.104,273.531,622.473 M363.882,613.304
		c0.442-7.491-0.928-8.714-5.331-4.726c-3.263,2.952-3.329,10.794-0.107,11.612C362.7,621.291,363.477,620.325,363.882,613.304
		 M438.844,620.097c1.007-0.645,1.825-9.6,2.375-26.151l0.846-25.171h-20.002h-20.017l-4.807,5.314
		c-10.727,11.881-12.148,15.372-12.915,31.938l-0.712,15.103l26.851-0.014C425.231,621.104,437.999,620.646,438.844,620.097
		 M544.177,616.713c0.752-9.652-0.67-57.027-1.761-58.344c-1.045-1.263-10.229-1.679-37.428-1.679
		c-34.246,0-36.099,0.135-37.415,2.591c-2.214,4.122-1.852,57.109,0.391,58.977c2.107,1.745,70.036,2.807,73.729,1.142
		C542.98,618.821,544.095,617.612,544.177,616.713 M377.291,611.061c-0.656-7.893-1.382-9.518-3.65-8.107
		c-1.839,1.128-1.865,9.506-0.041,12.902C376.271,620.861,377.936,618.727,377.291,611.061 M246.01,615.075
		c0-0.993-8.47-6.028-10.067-5.987c-0.738,0.027,1.075,1.53,4.027,3.356C245.756,616.002,246.01,616.108,246.01,615.075
		 M858.505,612.201c5.76-2.926,13.104-9.906,13.104-12.471c0-4.538-1.746-3.894-7.209,2.686c-3.047,3.664-7.961,8.202-10.916,10.067
		c-3.852,2.443-4.414,3.155-2.014,2.497C853.322,614.485,856.478,613.236,858.505,612.201 M340.749,593.273
		c15.023-24.34,22.058-36.408,22.058-37.847c0-1.288-5.235-6.065-5.839-5.329c-0.242,0.311-3.49,6.282-7.209,13.306
		c-3.719,7.021-11.371,21.155-16.996,31.414c-5.625,10.27-10.23,18.875-10.23,19.131c0,0.254,1.155,0.469,2.579,0.469
		C326.989,614.417,331.219,608.699,340.749,593.273 M845.121,609.585c9.988-4.979,17.088-10.553,17.088-13.397
		c0-0.888-1.569-2.015-3.477-2.483c-5.33-1.342-13.922,4.417-19.773,13.236c-2.737,4.108-4.645,7.478-4.256,7.478
		C835.105,614.417,839.791,612.242,845.121,609.585 M243.996,608.121c-3.905-2.98-10.859-5.785-14.337-5.785
		c-2.726,0-2.819,0.201-0.939,2.08c1.154,1.155,4.081,2.336,6.524,2.645c2.429,0.31,5.705,1.424,7.263,2.472
		C246.198,612.014,247.488,610.793,243.996,608.121 M149.338,603.342c-0.025-8.767-1.517-15.935-3.194-15.33
		c-0.819,0.309-2.512-0.336-3.759-1.425c-4.242-3.69-5.25-0.536-1.934,6.083c1.745,3.477,3.895,8.578,4.793,11.344
		C147.418,610.713,149.351,610.39,149.338,603.342 M822.687,603.517c-0.645-6.698-1.598-7.761-7.922-8.793
		c-4.119-0.672-4.912-0.401-4.912,1.598c0,2.31,10.055,12.727,12.283,12.727C822.728,609.047,822.982,606.565,822.687,603.517
		 M832.005,602.348c1.129-6.685,1.047-7.396-0.886-7.396c-0.94,0-1.692,2.805-1.905,7.061
		C828.798,610.108,830.648,610.323,832.005,602.348 M256.039,600.657c0.886-5.114,1.182-10.808,0.858-16.445
		c-0.229-3.841-0.323-3.907-2.201-1.423c-1.316,1.745-1.974,5.866-1.974,12.418C252.722,605.248,254.683,608.483,256.039,600.657
		 M838.623,596.656c0.523-2.402,2.537-4.631,5.813-6.444l5.02-2.776l-4.696,0.75c-5.799,0.94-8.082,3.825-7.947,10.044
		C836.919,603.181,837.24,602.899,838.623,596.656 M135.188,580.036l5.679-6.176l2.724,3.745l2.739,3.76l1.518-7.035
		c1.839-8.618,1.866-9.975,0.188-8.926c-2.028,1.248-25.87,7.343-28.891,7.384c-1.477,0.013-5.102,0.696-8.056,1.528l-5.369,1.49
		l3.155,2.188c3.678,2.55,16.148,7.92,18.809,8.107C128.691,586.172,132.06,583.446,135.188,580.036 M940.744,579.513
		c0.98-1.583-0.336-1.583-4.026,0c-2.59,1.115-2.576,1.155,0.256,1.248C938.597,580.815,940.289,580.252,940.744,579.513
		 M58.733,574.814c0-3.519-5.611-3.048-9.397,0.792l-2.685,2.712l6.042-0.403C57.7,577.566,58.733,577.043,58.733,574.814
		 M42.959,569.188c-1.289-0.335-3.41-0.335-4.697,0c-1.289,0.337-0.242,0.618,2.349,0.618
		C43.202,569.807,44.248,569.524,42.959,569.188 M890.443,564.41c11.275-7.074,16.353-14.354,11.355-16.258
		c-2.953-1.142-8.498,1.328-15.062,6.712l-5.772,4.727l2.807-7.505c2.361-6.337,2.602-8.592,1.516-14.539l-1.274-7.034l-0.16,5.519
		c-0.094,3.047-0.834,8.779-1.639,12.754c-1.759,8.552-2.728,21.332-1.638,21.332C881.005,570.116,885.435,567.551,890.443,564.41
		 M132.275,558.584c5.651-3.491,8.726-4.604,11.075-4.015c2.523,0.631,5.478-0.767,13.021-6.137
		c20.164-14.362,42.422-31.602,55.403-42.918c12.203-10.62,19.374-17.733,50.129-49.658l9.854-10.23l-3.155-3.195
		c-1.732-1.771-4.363-4.886-5.826-6.926l-2.672-3.72l-13.585,16.473c-29.172,35.374-43.497,50.894-46.571,50.449
		c-5.062-0.725-4.283-5.007,2.108-11.652c3.274-3.423,13.115-14.673,21.867-25.01c25.885-30.608,34.274-39.603,36.959-39.603
		c2.538,0,13.305,12.283,13.346,15.223c0,0.86,0.538,2.377,1.154,3.37c2.472,3.894,28.354-16.149,28.354-21.949
		c0-1.115-0.577-2.014-1.289-2.014c-0.711,0-12.283-4.833-25.708-10.74c-17.546-7.706-24.903-10.337-26.098-9.344
		c-0.913,0.752-7.571,9.961-14.794,20.459c-14.555,21.158-29.992,41.657-37.778,50.155c-6.699,7.316-56.223,45.632-72.212,55.861
		c-7.303,4.672-24.365,22.271-26.112,26.943c-2.791,7.464-1.584,8.015,4.967,2.215c7.425-6.552,10.082-7.732,20.595-9.17
		c8.767-1.194,13.116,0.162,10.525,3.275c-0.859,1.048-2.431,1.906-3.492,1.906c-2.08,0-15.21,11.746-15.21,13.612
		C117.132,564.961,125.039,563.042,132.275,558.584 M863.594,558.128c-2.513-4.94-7.226-9.492-9.826-9.492
		c-0.955,0,11.154,14.701,12.16,14.754C866.132,563.39,865.084,561.027,863.594,558.128 M70.211,556.813
		c-1.717-3.209-12.175-13.546-13.707-13.546c-5.047,0,8.889,15.977,14.029,16.083C71.112,559.362,70.964,558.221,70.211,556.813
		 M116.46,555.174c2.631-2.323,4.524-4.47,4.202-4.807c-0.953-0.939-8.001,3.102-10.794,6.189
		C105.64,561.229,110.795,560.142,116.46,555.174 M82.872,552.999c-0.243-2.026-0.833-6.994-1.304-11.05
		c-1.53-13.089-3.531-18.564-7.141-19.479c-4.592-1.153-5.184,0.121-2.041,4.362c4.872,6.592,7.154,12.178,7.115,17.373
		l-0.054,5.101l-4.175-5.128c-5.047-6.175-7.96-4.188-3.478,2.363C78.925,556.947,83.718,559.737,82.872,552.999 M94.47,532.271
		c0.833-6.416,1.088-13.371,0.563-15.438l-0.953-3.771l-1.799,5.207c-2.403,6.94-3.879,23.562-2.605,29.2l1.021,4.523l1.127-4.028
		C92.444,545.749,93.638,538.688,94.47,532.271 M743.453,524.808c-0.51-3.505-2.106-7.586-3.543-9.063
		c-2.59-2.646-4.633-2.686-134.209-3.034l-131.59-0.362l-1.945,4.673c-2.055,4.898-2.592,11.732-1.061,13.264
		c0.482,0.497,62.17,0.898,137.08,0.898h136.195L743.453,524.808 M976.375,507.69c-5.68-54.13-18.901-98.539-45.067-151.365
		l-7.813-15.774l-10.176-0.054c-20.231-0.121-25.158-0.779-38.529-5.155l-13.586-4.458l-15.291,1.974
		c-9.155,1.168-18.674,3.329-23.707,5.356c-4.633,1.88-9.6,3.088-11.049,2.712c-5.076-1.329-3.088-3.772,7.732-9.518
		c6.416-3.396,11.289-4.806,20.809-5.987c20.137-2.511,27.076-2.027,40.635,2.846c11.146,4,13.158,4.31,26.031,3.947l13.963-0.39
		l-12.176-18.123c-16.795-25.01-27.375-37.858-49.27-59.808c-31.938-32.005-65.111-57.015-102.058-76.938
		c-69.715-37.589-138.49-54.505-211.643-52.048c-53.067,1.785-102.403,11.759-147.779,29.897
		c-51.914,20.728-98.055,50.759-137.296,89.369l-21.479,21.131l8.256-0.819c4.739-0.469,10.042-0.188,12.432,0.645
		c3.987,1.383,4.27,1.235,6.727-3.517c8.336-16.178,26.742-22.246,42.959-14.164c7.424,3.692,13.882,11.679,15.532,19.197
		c0.767,3.49,1.423,3.772,12.5,5.437c18.444,2.779,27.117,8.444,27.117,17.708c0,2.805-0.147,5.208-0.335,5.316
		c-0.188,0.107-34.475,0.644-76.187,1.195c-41.71,0.55-77.058,1.396-78.535,1.879c-1.65,0.551-8.482,10.593-17.667,25.99
		c-18.069,30.313-23.586,41.228-33.897,67.058c-12.913,32.354-18.887,53.807-24.929,89.611c-1.867,11.075-3.707,21.521-4.095,23.211
		c-0.712,3.063-0.686,3.063,3.692,0.819c2.416-1.249,7.719-4.806,11.786-7.896c4.067-3.101,8.98-6.792,10.929-8.201
		c11.947-8.646,32.273-25.388,37.563-30.944c6.229-6.551,23.091-29.535,38.569-52.531c4.55-6.781,10.202-14.513,12.539-17.184
		c5.25-5.975,6.443-5.827,26.299,3.289c25.48,11.68,39.523,17.762,39.992,17.304c0.241-0.254,7.09-11.921,15.198-25.923
		s15.962-27.023,17.452-28.957c1.665-2.148,7.007-5.182,13.855-7.867c6.12-2.417,11.853-5.075,12.753-5.907
		c0.885-0.832,7.598-12.995,14.914-27.024c7.316-14.029,16.445-31.548,20.298-38.932c11.733-22.5,14.673-25.588,26.93-28.192
		c8.915-1.893,15.492-6.39,29.67-20.285c11.88-11.653,14.915-13.949,18.393-13.949c2.791,0,4.886,1.007,6.336,3.021
		c10.834,15.116,28.03,45.107,42.046,73.327c9.305,18.727,17.682,34.341,18.621,34.703c0.926,0.349,3.557-0.927,5.84-2.846
		c6.819-5.733,4.752-7.666,29.547,27.722l7.289,10.404l7.506-0.819l7.518-0.819l13.923,15.922
		c29.521,33.75,38.77,43.214,43.938,44.905c2.727,0.913,10.111,4.028,16.379,6.928c6.285,2.898,23.816,10.404,38.947,16.673
		c15.129,6.269,30.701,13.17,34.596,15.344c8.041,4.484,6.994,4.739,22.15-5.315c29.697-19.694,37.885-24.688,40.529-24.688
		c1.692,0,15.075,9.048,31.696,21.439c45.832,34.166,52.881,38.649,118.043,75.151l12.754,7.144l0.472-3.706
		C977.718,524.123,977.22,515.813,976.375,507.69 M460.566,513.315c0.966-0.766,2.618-3.074,3.679-5.115
		c1.062-2.04,3.732-4.778,5.947-6.095c4.001-2.351,4.041-2.512,4.041-13.936v-11.573l-6.563-3.073
		c-3.61-1.691-7.196-2.847-7.961-2.578c-2.014,0.725-41.858,42.985-41.858,44.408C417.847,517.007,458.352,515.073,460.566,513.315
		 M92.873,504.589c0.055-0.967-0.511-1.383-1.249-0.926c-0.737,0.456-1.302,2.457-1.249,4.442c0.081,3.223,0.215,3.33,1.249,0.927
		C92.256,507.556,92.82,505.556,92.873,504.589 M493.027,486.21c0-10.914-0.402-14.096-1.812-14.096
		c-4.202,0-6.056,4.563-6.244,15.438c-0.106,5.907-0.146,11.196-0.093,11.747c0.054,0.55,1.905,1.007,4.121,1.007h4.026
		L493.027,486.21 M561.214,486.546l0.375-13.089h-19.306c-10.619,0-23.938-0.389-29.589-0.873l-10.27-0.859v14.312v14.324
		l29.198-0.363l29.199-0.362L561.214,486.546 M618.55,488.225v-11.411l-23.828-0.362l-23.83-0.376v12.148v12.148l23.83-0.376
		l23.828-0.362V488.225 M281.438,287.389c30.045-0.523,54.961-1.504,55.378-2.175c0.402-0.671-0.376-2.457-1.732-3.96
		c-2.188-2.417-3.49-2.645-10.875-1.893l-8.39,0.859l-0.026-5.746c-0.079-20.5-24.715-28.958-38.072-13.076
		c-1.934,2.296-3.585,4.887-3.651,5.76c-0.081,0.858-0.283,3.839-0.457,6.618c-0.174,2.766-0.658,5.37-1.074,5.786
		c-0.417,0.416-3.813-0.792-7.558-2.685c-9.909-5.021-23.951-4.927-33.671,0.242c-3.987,2.108-8.189,5.652-9.826,8.283l-2.874,4.578
		l4.108-0.819C224.973,288.705,251.394,287.912,281.438,287.389 M353.088,286.516c-0.633-1.919-8.229-2.994-11.561-1.625
		c-1.946,0.792-1.893,1.034,0.47,2.014C346.361,288.691,353.719,288.436,353.088,286.516 M975.488,683.622
		c-0.401-1.062,1.437-7.772,4.107-14.888c8.955-23.896,16.271-55.444,20.365-87.745c2.793-21.989,2.739-63.499-0.107-86.725
		c-4.039-32.958-14.066-75.663-23.021-98.041c-3.827-9.559-3.786-13.385,0.175-13.385c2.2,0,3.584,2.645,7.76,14.767
		c11.518,33.401,19.707,70.776,22.553,102.916c2.027,22.916,0.887,75.461-2.041,93.759c-4.631,28.958-14.418,65.861-22.539,84.912
		C980.052,685.489,976.939,687.396,975.488,683.622 M266.269,786.872c-3.021-2.725-5.492-5.945-5.479-7.155
		c0.014-1.382,2.229,0.216,6.067,4.376C274.202,792.055,273.84,793.72,266.269,786.872 M282.593,786.9
		c-27.036-13.694-24.688-52.306,3.761-61.754c9.008-2.981,18.016-1.209,26.943,5.328c13.492,9.866,17.022,26.797,8.887,42.529
		C314.02,788.753,297.629,794.513,282.593,786.9 M308.504,776.229c13.666-10.419,12.578-31.241-2.067-39.471
		c-13.399-7.531-29.509-0.51-33.59,14.66c-1.679,6.188,0.065,14.498,4.282,20.419C283.975,781.449,298.918,783.544,308.504,776.229
		 M705.033,766.226c-3.035-3.033-3.922-5.154-3.922-9.329c0-7.976,4.338-12.419,12.93-13.252
		c8.779-0.846,13.722,2.929,14.849,11.357c0.699,5.17,0.334,6.095-3.976,10.404c-3.905,3.906-5.719,4.738-10.35,4.738
		C710.16,770.146,708.121,769.3,705.033,766.226 M718.794,761.218c1.354-1.234,2.454-3.142,2.454-4.27
		c0-2.792-3.973-6.939-6.645-6.939c-5.262,0-7.182,6.592-3.221,10.968C714.135,764.01,715.65,764.063,718.794,761.218
		 M180.189,632.5c-3.625-3.866-1.665-4.455,2.792-0.845c1.771,1.437,2.483,2.819,1.691,3.314
		C183.92,635.44,181.906,634.327,180.189,632.5 M207.977,553.107c-2.31-2.311-0.04-5.64,10.7-15.682
		c19.761-18.5,23.722-20.97,25.614-16.043c0.658,1.719-3.142,6.082-15.144,17.439C214.354,552.798,210.367,555.497,207.977,553.107
		 M278.848,545.871c-2.042-3.303,30.339-44.222,34.997-44.222c4.591,0,3.477,4.309-3.396,13.13
		c-3.879,4.968-10.98,14.311-15.8,20.768c-6.564,8.82-9.519,11.746-11.841,11.746C281.116,547.293,279.33,546.648,278.848,545.871
		 M265.14,524.927c-3.462-1.396-1.303-5.638,11.882-23.276c7.451-9.976,19.652-27.159,27.119-38.194
		c19.505-28.836,19.6-28.931,29.333-28.931c7.612,0,8.083,0.201,10.271,4.31c2.711,5.114,33.401,51.081,40.758,61.083
		c5.544,7.504,6.188,9.935,3.33,12.311c-1.396,1.154-2.645,0.872-5.303-1.223c-3.933-3.088-20.526-26.07-36.528-50.597
		c-5.895-9.023-11.466-16.714-12.393-17.078c-3.141-1.248-5.101,0.645-14.082,13.707c-25.574,37.161-33.401,47.914-44.988,61.728
		C268.565,525.88,268.161,526.149,265.14,524.927 M429.488,410.803c-1.759-1.759-0.777-5.651,7.879-31.401
		c9.331-27.763,12.781-42.086,15.306-63.687c0.873-7.384,3.314-20.071,5.449-28.192c2.121-8.122,4.553-18.808,5.41-23.735
		c1.799-10.445,3.881-14.029,7.33-12.7c3.249,1.249,2.351,9.169-3.853,34.422c-2.631,10.712-5.745,27.01-6.9,36.247
		c-2.698,21.372-4.283,28.085-12.794,54.371c-10.284,31.776-11.84,35.576-14.579,35.576
		C431.448,411.703,429.97,411.3,429.488,410.803 M395.603,408.587c-0.417-1.073,1.651-7.007,4.578-13.183
		c2.926-6.175,8.752-21.198,12.94-33.374c11.653-33.817,21.978-60.774,24.059-62.869c1.047-1.034,2.631-1.437,3.53-0.873
		c2.604,1.611,0.671,12.311-4.511,24.902c-2.551,6.229-7.49,19.775-10.981,30.112c-6.779,20.124-15.479,42.275-20.03,51.015
		C402.249,409.944,397.026,412.279,395.603,408.587 M820.634,492.789l-20.515-20.956l-3.045,2.498
		c-1.692,1.369-9.922,8.444-18.299,15.733c-8.379,7.289-16.594,14.149-18.244,15.251c-3.356,2.228-7.063,1.463-7.063-1.465
		c0-2.081,45.094-41.119,47.512-41.146c1.732-0.013,39.563,38.046,42.93,43.174c2.353,3.598,1.761,7.854-1.112,7.854
		C841.885,513.73,831.91,504.308,820.634,492.789 M575.281,627.211c-2.391-1.047-5.557-3.893-7.049-6.336
		c-2.482-4.096-2.697-6.739-2.713-33.133v-28.689l5.211-5.208l5.209-5.209l36.744-0.241c20.203-0.135,58.396-0.16,84.871-0.067
		c53.188,0.202,52.975,0.162,56.572,8.808c0.979,2.336,3.368,16.486,5.303,31.415c3.248,25.036,3.369,27.493,1.436,31.212
		c-4.416,8.551,0,8.135-94.846,8.778C593.378,629.023,578.931,628.823,575.281,627.211 M625.8,617.935
		c1.073-1.288,1.424-10.484,1.168-30.445l-0.363-28.597l-3.354-0.858c-1.854-0.483-12.888-0.522-24.554-0.094
		c-16.78,0.604-21.453,1.182-22.461,2.778c-0.696,1.113-1.289,13.64-1.289,27.856c-0.026,33.603-2.121,31.212,27.334,31.212
		C619.302,619.787,624.605,619.372,625.8,617.935 M686.304,617.828c1.854-2.242,1.518-57.434-0.377-59.313
		c-1.894-1.905-43.482-1.746-46.113,0.176c-2.055,1.504-2.35,4.914-2.604,29.722c-0.188,17.667,0.227,28.636,1.1,29.696
		C640.459,620.729,684.101,620.472,686.304,617.828 M750.677,617.438l2.873-2.35l-3.545-26.179c-1.947-14.404-4-27.078-4.554-28.191
		c-0.776-1.57-5.18-2.243-20.108-3.021c-10.513-0.564-21.01-0.523-23.347,0.08l-4.241,1.101l-0.363,28.77
		c-0.322,25.87-0.133,28.944,1.936,30.462c1.623,1.193,9.021,1.678,25.386,1.678C744.718,619.787,748.193,619.479,750.677,617.438
		 M638.781,323.542c-1.49-3.893,1.609-5.034,15.195-5.585l13.238-0.524l1.584-5.289c1.799-6,6.819-9.76,14.754-11.021
		c4.295-0.685,5.424-1.625,7.518-6.27c4.443-9.854,15.063-17.157,26.635-18.312c9.144-0.913,20.836,3.437,27.724,10.324l5.061,5.061
		l2.888-3.893c7.303-9.881,20.313-14.189,34.877-11.585c7.627,1.37,9.412,2.336,15.561,8.337
		c11.396,11.129,16.779,31.602,10.068,38.314c-2.633,2.631-4.47,2.685-88.457,2.685C646.594,325.784,639.572,325.61,638.781,323.542
		 M807.556,313.03c-1.463-21.332-20.928-34.904-37.695-26.313c-8.969,4.605-11.733,8.74-11.438,17.104
		c0.201,5.423-0.258,7.531-1.72,8.095c-2.311,0.886-7.264-3.115-7.264-5.867c0-2.846-12.055-15.103-17.707-17.976
		c-7.412-3.786-16.727-3.383-23.521,1.007c-5.8,3.772-11.129,11.625-11.129,16.418c0,2.282-0.847,2.846-4.363,2.913
		c-6.443,0.107-13.209,2.86-15.465,6.309l-2,3.035l66.291-0.35l66.293-0.348L807.556,313.03 M234.598,323.207
		c-5.92-0.578-8.055-1.315-8.055-2.793c0-1.638,2.618-2.08,13.962-2.402c12.58-0.336,14.353-0.711,17.896-3.692
		c4.538-3.826,13.116-4.525,15.801-1.289c1.396,1.691,1.182,2.014-1.328,2.014c-1.651,0-5.894,2.107-9.412,4.699
		C256.575,324.804,254.093,325.099,234.598,323.207 M807.169,281.884c-6.779-1.074-7.625-1.758-4.779-3.852
		c3.787-2.793,56.063-2.807,58.385-0.027c1.207,1.463,1.168,2.147-0.174,3.02C858.853,282.153,813.507,282.878,807.169,281.884
		 M592.867,268.769c-1.69-4.431,1.761-5.196,27.334-6.042c16.084-0.523,26.299-1.437,28.217-2.498
		c1.666-0.926,6.74-4.98,11.267-9.021c5.893-5.262,10.322-7.961,15.559-9.478c9.063-2.631,14.554-1.745,25.197,4.095
		c4.432,2.43,9.721,4.806,11.748,5.289c4.578,1.087,4.686,2.806,0.363,5.639c-3.195,2.094-3.813,1.973-13.761-2.578
		c-5.745-2.618-11.748-5.115-13.358-5.571c-4.269-1.182-11.771,2.443-20.379,9.84c-14.097,12.123-12.123,11.572-43.414,12.096
		C596.558,270.97,593.646,270.783,592.867,268.769 M466.688,158.711c-0.417-1.073-0.363-2.59,0.12-3.356
		c1.087-1.772,57.94-1.946,59.029-0.188c0.416,0.671,0.389,2.188-0.056,3.356c-0.725,1.853-4.537,2.135-29.588,2.135
		C472.286,160.659,467.305,160.323,466.688,158.711 M287.305,770.723c-4.256-2.296-7.734-8.31-7.734-13.33
		c0-15.05,20.435-21.157,28.192-8.417c3.371,5.529,3.384,9.935,0.054,15.397C303.146,772.039,294.608,774.684,287.305,770.723
		 M300.287,759.124c1.906-2.713,1.84-3.182-0.833-6.027c-3.65-3.894-7.062-3.934-9.732-0.107c-2.888,4.107-2.618,7.235,0.792,9.64
		C293.844,764.95,297.01,763.822,300.287,759.124z"/>
</g>
</svg>
